<?xml version="1.0" encoding="UTF-8"?>
<svg version="1.1" xmlns="http://www.w3.org/2000/svg" width="1325" height="1325">
<path d="M0 0 C437.25 0 874.5 0 1325 0 C1325 437.25 1325 874.5 1325 1325 C887.75 1325 450.5 1325 0 1325 C0 887.75 0 450.5 0 0 Z " fill="#FEFEFE" transform="translate(0,0)"/>
<path d="M0 0 C12.94414821 -0.11623403 25.88817072 -0.20488768 38.83273602 -0.25906086 C44.84448976 -0.28507117 50.85588447 -0.32031244 56.86743164 -0.37719727 C62.677061 -0.43182271 68.48634664 -0.46148485 74.29621315 -0.47438622 C76.50443743 -0.48357146 78.71264449 -0.50150721 80.92072105 -0.52865028 C98.91957999 -0.74095387 111.76254733 1.04807244 125.15234375 14.09765625 C135.53235997 25.05756165 138.66190241 37.1602311 138.3125 51.8671875 C137.72441923 62.70257566 130.95459381 72.92294477 123.25 80.30078125 C116.38818714 85.4828795 108.26979249 88.83761803 100 91 C101.02738281 91.21914063 102.05476563 91.43828125 103.11328125 91.6640625 C118.37653993 95.08360883 131.01085274 101.25580622 140.375 114.375 C147.92732509 126.59136721 149.96011616 141.01808229 146.9375 155 C142.96078648 169.04857674 135.24904811 179.52499899 122.58984375 186.68359375 C115.45656863 190.30940629 108.50462037 193.12994565 100.41252136 193.12025452 C99.52216187 193.12162918 98.63180237 193.12300385 97.71446228 193.12442017 C96.75061111 193.12082489 95.78675995 193.11722961 94.79370117 193.11352539 C93.76884613 193.11367142 92.74399109 193.11381744 91.68807983 193.1139679 C88.30635448 193.11327218 84.92468446 193.1054957 81.54296875 193.09765625 C79.19598928 193.09579086 76.84900942 193.09436753 74.50202942 193.09336853 C68.32889732 193.08955289 62.1557888 193.07973071 55.98266602 193.06866455 C49.68180663 193.05842996 43.38094343 193.05386652 37.08007812 193.04882812 C24.72004173 193.03810761 12.36002283 193.0210426 0 193 C0 189.37 0 185.74 0 182 C7.59 182 15.18 182 23 182 C23 125.57 23 69.14 23 11 C15.74 11 8.48 11 1 11 C0 10 0 10 -0.09765625 7.71484375 C-0.08605469 6.79832031 -0.07445312 5.88179687 -0.0625 4.9375 C-0.05347656 4.01839844 -0.04445313 3.09929688 -0.03515625 2.15234375 C-0.02355469 1.44207031 -0.01195312 0.73179687 0 0 Z " fill="#242021" transform="translate(355,522)"/>
<path d="M0 0 C17.51553325 18.48687767 23.54314565 42.16650052 23.61523438 67.03710938 C23.6248813 69.03788217 23.65605719 71.03851353 23.6875 73.0390625 C23.78074847 96.72417365 15.73666927 119.51853384 -0.625 136.9375 C-12.13240515 147.71078042 -25.58810036 153.54785882 -41.375 153.4375 C-42.33510986 153.43177979 -43.29521973 153.42605957 -44.28442383 153.42016602 C-59.02841371 153.0524021 -71.49120739 146.89052542 -82.25 136.875 C-90.64168746 128.03214655 -96.58378052 117.38762186 -100.625 105.9375 C-100.99367188 104.89980469 -101.36234375 103.86210938 -101.7421875 102.79296875 C-110.6668582 75.85609769 -108.7136724 45.31996954 -96.375 19.8125 C-93.12041326 13.51150903 -89.36109184 8.19778065 -84.625 2.9375 C-84.03332031 2.24140625 -83.44164062 1.5453125 -82.83203125 0.828125 C-73.11887092 -9.85842239 -59.07944449 -16.15926243 -44.79296875 -16.9921875 C-27.47792379 -17.37649183 -12.74995957 -11.88966818 0 0 Z " fill="#FEFEFE" transform="translate(845.625,550.0625)"/>
<path d="M0 0 C12.5876194 -0.0464583 25.17521821 -0.08193762 37.76290607 -0.10362434 C43.60865126 -0.11403588 49.45433754 -0.12814689 55.30004883 -0.15087891 C60.94754295 -0.17270125 66.59498061 -0.18458838 72.24251366 -0.18975449 C74.39094112 -0.19343343 76.53936569 -0.20061726 78.68776894 -0.21146011 C81.71028815 -0.22609994 84.73257767 -0.22797275 87.75512695 -0.22705078 C88.63195129 -0.23424133 89.50877563 -0.24143188 90.41217041 -0.24884033 C104.12863535 -0.20393061 117.28794063 3.18621841 127.5 12.8125 C133.94021926 19.96983147 137.73147196 27.69740301 140 37 C140.17200928 37.60134766 140.34401855 38.20269531 140.52124023 38.82226562 C141.47933364 43.18034477 141.22749925 47.68110259 141.25 52.125 C141.2809375 53.61773438 141.2809375 53.61773438 141.3125 55.140625 C141.38276817 68.59697887 136.64334868 79.91840199 127.5 89.7890625 C119.20104753 97.12844859 109.18664647 102 98 102 C105.63722154 114.17123607 113.38109431 126.26721034 121.23779297 138.29785156 C123.13280969 141.20364888 125.02184591 144.11327806 126.91015625 147.0234375 C128.231728 149.0573195 129.55334179 151.09117419 130.875 153.125 C131.48126221 154.06053711 132.08752441 154.99607422 132.7121582 155.95996094 C141.39170115 171.13305117 141.39170115 171.13305117 155 181 C157.56634861 181.22718496 160.11678107 181.41608184 162.6875 181.5625 C163.38939453 181.60568359 164.09128906 181.64886719 164.81445312 181.69335938 C166.54275206 181.7991736 168.2713511 181.90006581 170 182 C170 185.63 170 189.26 170 193 C164.73475555 193.09943082 159.47006657 193.17173199 154.20410156 193.21972656 C152.41559316 193.23974959 150.62714946 193.26697654 148.83886719 193.30175781 C146.25699838 193.35068955 143.6760005 193.37306165 141.09375 193.390625 C139.90888 193.42159271 139.90888 193.42159271 138.70007324 193.45318604 C132.22980019 193.45575755 126.98038047 191.66633212 122.109375 187.30859375 C116.59454987 179.71778559 111.67055131 171.7401715 106.72265625 163.77294922 C104.29438674 159.86417865 101.85370843 155.96319998 99.4140625 152.06152344 C98.13743549 150.01957157 96.86139426 147.97725336 95.5859375 145.93457031 C92.60666134 141.16374383 89.62333237 136.39559675 86.625 131.63671875 C86.10115723 130.80382324 85.57731445 129.97092773 85.03759766 129.11279297 C84.02658616 127.51809811 83.00566966 125.92963227 81.97412109 124.34814453 C79.8455377 121.06893679 78.01252231 118.02944348 76.4765625 114.41796875 C75.09889318 110.86287679 75.09889318 110.86287679 71 107 C60.11 106.505 60.11 106.505 49 106 C49 131.08 49 156.16 49 182 C56.26 182 63.52 182 71 182 C71 185.63 71 189.26 71 193 C47.9 193 24.8 193 1 193 C1 189.37 1 185.74 1 182 C7.93 182 14.86 182 22 182 C22 125.57 22 69.14 22 11 C15.07 11 8.14 11 1 11 C0 10 0 10 -0.09765625 7.71484375 C-0.08605469 6.79832031 -0.07445312 5.88179687 -0.0625 4.9375 C-0.05347656 4.01839844 -0.04445313 3.09929688 -0.03515625 2.15234375 C-0.02355469 1.44207031 -0.01195312 0.73179687 0 0 Z " fill="#262223" transform="translate(532,522)"/>
<path d="M0 0 C60.80126183 0 60.80126183 0 81 19 C99.26656548 38.43375817 106.17929406 62.25466523 105.38671875 88.46484375 C104.72052855 100.65171121 101.28844329 112.01870306 96 123 C95.58234375 123.91007813 95.1646875 124.82015625 94.734375 125.7578125 C90.77153194 133.75182349 85.23321249 139.73912532 79 146 C78.43796875 146.59683594 77.8759375 147.19367188 77.296875 147.80859375 C73.51836811 151.47772281 68.95292632 153.78759836 64.3125 156.1875 C63.67739502 156.52104492 63.04229004 156.85458984 62.38793945 157.19824219 C42.55333614 167.00078597 22.20988843 163 0 163 C0 109.21 0 55.42 0 0 Z " fill="#FEFEFE" transform="translate(1156,537)"/>
<path d="M0 0 C12.94421037 -0.06974075 25.88837549 -0.12293312 38.83273602 -0.15543652 C44.8443691 -0.17104239 50.85587292 -0.1921874 56.86743164 -0.22631836 C62.67703827 -0.2590935 68.48652114 -0.27689114 74.29621315 -0.28463173 C76.50440224 -0.29014279 78.71258514 -0.30090389 80.92072105 -0.31719017 C92.34949662 -0.3980743 103.0000451 -0.45918105 114 3 C115.90072266 3.54720703 115.90072266 3.54720703 117.83984375 4.10546875 C142.87735325 12.85123184 162.30323763 30.14702797 174 54 C186.0649088 79.36793428 185.86245414 106.95973624 176.55859375 133.21484375 C167.01455021 157.30398454 148.70114755 175.04016925 125.30078125 185.7265625 C108.96444542 192.76365611 93.43005469 193.42578581 75.87890625 193.29296875 C73.68074333 193.28736114 71.48257661 193.28309656 69.28440857 193.28010559 C63.54862796 193.26874848 57.81308172 193.23936166 52.07739258 193.20599365 C46.20462207 193.175094 40.33181305 193.16155807 34.45898438 193.14648438 C22.97255429 193.11448179 11.48629677 193.06339825 0 193 C0 189.37 0 185.74 0 182 C7.26 182 14.52 182 22 182 C22 125.57 22 69.14 22 11 C14.74 11 7.48 11 0 11 C0 7.37 0 3.74 0 0 Z M49 15 C49 68.79 49 122.58 49 178 C82.48059452 179.94678619 82.48059452 179.94678619 113.125 171.375 C114.14110352 170.85667603 114.14110352 170.85667603 115.17773438 170.32788086 C121.30734642 167.06805501 126.19624348 163.01223782 131 158 C131.68191406 157.34902344 132.36382813 156.69804688 133.06640625 156.02734375 C142.7469814 146.19521361 148.89175255 132.28655 152 119 C152.25946411 117.89906006 152.25946411 117.89906006 152.52416992 116.77587891 C157.59560085 93.71979821 153.67401796 67.99473074 141 48 C129.29907794 30.2714753 115.27388005 21.23811694 95 15 C79.82 15 64.64 15 49 15 Z " fill="#262324" transform="translate(1107,522)"/>
<path d="M0 0 C3.63 0 7.26 0 11 0 C18.0816268 17.63494049 25.07729658 35.30211548 32 53 C32.45496857 54.16287537 32.45496857 54.16287537 32.91912842 55.34924316 C40.03379595 73.53531224 47.14671725 91.72168344 54.13305664 109.95751953 C57.69913989 119.25103808 61.31999307 128.5229214 64.94287109 137.79440308 C67.9647326 145.52850169 70.98308607 153.26397025 74 161 C74.42974121 162.10175568 74.42974121 162.10175568 74.86816406 163.22576904 C76.58442995 167.62749968 78.29420295 172.03169873 80 176.4375 C80.41507813 177.50226563 80.83015625 178.56703125 81.2578125 179.6640625 C81.62648438 180.61925781 81.99515625 181.57445312 82.375 182.55859375 C82.69210937 183.37642334 83.00921875 184.19425293 83.3359375 185.03686523 C84 187 84 187 84 189 C89.61 189 95.22 189 101 189 C101 192.63 101 196.26 101 200 C78.89 200 56.78 200 34 200 C34 196.37 34 192.74 34 189 C41.59 189 49.18 189 57 189 C56.27554687 187.2365625 55.55109375 185.473125 54.8046875 183.65625 C49.68767828 171.16894274 44.63635559 158.67567731 40 146 C39.00408663 143.33178208 38.00224322 140.66585042 37 138 C11.99254289 137.20871801 -12.98021352 136.85786697 -38 137 C-45.0744193 154.30452477 -52.07420996 171.63533801 -59 189 C-51.08 189 -43.16 189 -35 189 C-35 192.63 -35 196.26 -35 200 C-53.81 200 -72.62 200 -92 200 C-92 196.37 -92 192.74 -92 189 C-86.72 189 -81.44 189 -76 189 C-75.60941406 187.60394531 -75.21882812 186.20789063 -74.81640625 184.76953125 C-72.94684408 178.55397114 -70.47079595 172.65704042 -67.9375 166.6875 C-66.85489689 164.1099352 -65.7781731 161.52994278 -64.703125 158.94921875 C-64.41322189 158.25359833 -64.12331879 157.55797791 -63.82463074 156.84127808 C-59.84777308 147.26708694 -56.02632489 137.63012757 -52.1875 128 C-50.63074422 124.09744226 -49.07341452 120.19511397 -47.515625 116.29296875 C-47.13245117 115.33314087 -46.74927734 114.37331299 -46.35449219 113.38439941 C-41.24647442 100.59856936 -36.06125047 87.84415939 -30.87731934 75.088974 C-28.4575275 69.13267585 -26.04778408 63.17235082 -23.640625 57.2109375 C-2.78169359 5.56338718 -2.78169359 5.56338718 0 0 Z " fill="#262223" transform="translate(988,515)"/>
<path d="M0 0 C0.80953125 0.71542969 1.6190625 1.43085937 2.453125 2.16796875 C3.38898438 2.97814453 3.38898438 2.97814453 4.34375 3.8046875 C23.4381526 21.51608431 33.32343357 48.42077103 34.77734375 73.9140625 C35.67662796 99.80174122 26.09931604 125.44626897 9.453125 145.16796875 C8.94652344 145.81894531 8.43992187 146.46992187 7.91796875 147.140625 C-4.89039708 162.97012871 -26.33897002 175.01193232 -46.51953125 177.8125 C-73.47123213 180.59843663 -96.93848046 173.58155703 -118.234375 156.85546875 C-137.98474919 140.05761784 -150.90684854 116.49150494 -154.26953125 90.7109375 C-155.20335917 78.78161465 -155.06997507 66.898934 -152.546875 55.16796875 C-152.30195312 53.99105469 -152.05703125 52.81414062 -151.8046875 51.6015625 C-145.94114476 26.72042316 -130.01995245 5.10445737 -108.75390625 -8.87109375 C-101.25188291 -13.45820181 -93.71805193 -16.96022084 -85.359375 -19.64453125 C-84.71830811 -19.85174805 -84.07724121 -20.05896484 -83.41674805 -20.27246094 C-54.1529874 -29.13189173 -22.66966061 -19.33398197 0 0 Z M-101.671875 9.73046875 C-114.78804945 23.47221591 -120.78935677 39.85927699 -124.546875 58.16796875 C-124.7428125 59.09351563 -124.93875 60.0190625 -125.140625 60.97265625 C-128.56999964 87.94600675 -123.51449339 117.37207556 -106.796875 139.29296875 C-97.32142692 150.57411542 -86.17498724 158.93759396 -71.546875 162.16796875 C-67.93812968 162.46435649 -64.35380954 162.49280493 -60.734375 162.48046875 C-59.80044922 162.49658203 -58.86652344 162.51269531 -57.90429688 162.52929688 C-43.08300913 162.53958229 -30.27384125 156.17408287 -19.546875 146.16796875 C-2.50588439 128.50318148 4.86613693 104.91965039 4.71386719 80.75268555 C4.70315709 78.73650932 4.71381912 76.72122733 4.7265625 74.70507812 C4.7107145 66.65033338 4.06294638 59.0572611 2.453125 51.16796875 C2.26177979 50.16958984 2.07043457 49.17121094 1.87329102 48.14257812 C-0.77783321 34.89289326 -8.00423356 22.4832927 -16.546875 12.16796875 C-17.43246094 11.09482422 -17.43246094 11.09482422 -18.3359375 10 C-28.32797357 -0.99123968 -42.60784165 -6.98090403 -57.22265625 -7.76171875 C-74.50152882 -8.12719432 -89.05533485 -2.12791259 -101.671875 9.73046875 Z " fill="#252122" transform="translate(864.546875,540.83203125)"/>
<path d="M0 0 C2.6495825 0.95734631 4.60854259 2.30954371 6.89990234 3.95117188 C7.82681885 4.60819092 8.75373535 5.26520996 9.70874023 5.94213867 C10.69865967 6.65023682 11.6885791 7.35833496 12.70849609 8.08789062 C22.98901924 15.33455293 33.40278048 22.23632451 44.14599609 28.77539062 C45.40283203 29.54181885 45.40283203 29.54181885 46.68505859 30.32373047 C80.32510041 50.73997227 115.43703906 68.58144396 152.14599609 82.77539062 C152.14599609 83.10539063 152.14599609 83.43539062 152.14599609 83.77539062 C73.93599609 83.77539062 -4.27400391 83.77539062 -84.85400391 83.77539062 C-84.85400391 63.77539062 -84.85400391 63.77539062 -81.79150391 59.83789062 C-80.14998594 58.81013247 -78.50334276 57.79055041 -76.85400391 56.77539062 C-74.41645831 54.76253006 -72.08294754 52.63487816 -69.72900391 50.52539062 C-63.22751618 44.86051218 -56.55269926 39.46272175 -49.71679688 34.20849609 C-47.73811932 32.68623695 -45.76676691 31.15477198 -43.79541016 29.62304688 C-34.63837841 22.53526921 -25.32535093 15.71058316 -15.79931641 9.12695312 C-13.94225039 7.83670244 -12.10031899 6.52722283 -10.26025391 5.21289062 C-9.19806641 4.47039063 -8.13587891 3.72789062 -7.04150391 2.96289062 C-6.12755859 2.31707031 -5.21361328 1.67125 -4.27197266 1.00585938 C-1.85400391 -0.22460938 -1.85400391 -0.22460938 0 0 Z " fill="#007AC3" transform="translate(88.85400390625,754.224609375)"/>
<path d="M0 0 C77.88 0 155.76 0 236 0 C232.96744662 2.02170225 230.07620306 3.33527121 226.7265625 4.765625 C225.42824021 5.32396259 224.13006991 5.88265373 222.83203125 6.44165039 C222.14705566 6.73572784 221.46208008 7.0298053 220.75634766 7.33279419 C176.67468633 26.30293066 133.01111027 48.33131406 94.5625 77.30078125 C93.59316528 78.02624146 93.59316528 78.02624146 92.60424805 78.76635742 C90.95720653 80.01527227 89.33101213 81.29155523 87.70703125 82.5703125 C85 84 85 84 82.59472656 83.25952148 C80.15928757 82.07732072 78.00562296 80.80972259 75.77734375 79.27734375 C74.99762207 78.74343018 74.21790039 78.2095166 73.41455078 77.65942383 C72.59712402 77.09118896 71.77969727 76.5229541 70.9375 75.9375 C69.66495361 75.05904419 69.66495361 75.05904419 68.36669922 74.1628418 C61.78587788 69.59759266 55.3452494 64.88838716 49 60 C47.92356708 59.18047707 46.84672917 58.36148588 45.76953125 57.54296875 C38.72335608 52.17504558 31.80646149 46.67047348 25 41 C24.48969238 40.57605957 23.97938477 40.15211914 23.45361328 39.71533203 C20.71207888 37.43391529 17.99393343 35.13193259 15.3046875 32.7890625 C12.6427702 30.48587705 9.87697963 28.44094723 6.95361328 26.48193359 C4.34540061 24.29340015 2.22682137 21.57560062 0 19 C0 12.73 0 6.46 0 0 Z " fill="#007AC3" transform="translate(4,521)"/>
<path d="M0 0 C0 17.16 0 34.32 0 52 C-9.9 54.97 -9.9 54.97 -20 58 C-61.97621589 71.48410895 -106.58077274 88.42820574 -143.58886719 112.69775391 C-150.18199569 116.96425699 -150.18199569 116.96425699 -154.12890625 117.13671875 C-157.92053645 115.63554271 -161.40646655 113.84777595 -164.9375 111.8125 C-165.69949707 111.38050293 -166.46149414 110.94850586 -167.24658203 110.50341797 C-174.00997033 106.63611605 -180.70129225 102.64461376 -187.375 98.625 C-188.36749756 98.03050049 -189.35999512 97.43600098 -190.38256836 96.82348633 C-191.31593018 96.25525146 -192.24929199 95.6870166 -193.2109375 95.1015625 C-194.03899902 94.59963379 -194.86706055 94.09770508 -195.72021484 93.58056641 C-198.10241436 91.92899651 -200.0163044 90.10671548 -202 88 C-195.01964464 82.93957768 -187.85621096 78.40556492 -180.375 74.125 C-178.70630859 73.16823364 -178.70630859 73.16823364 -177.00390625 72.19213867 C-135.38574788 48.44961622 -91.84203449 28.090895 -46.3125 13 C-45.30429199 12.66460205 -44.29608398 12.3292041 -43.25732422 11.98364258 C-34.04248284 8.95216018 -24.74547089 6.26052004 -15.39550781 3.68115234 C-11.958411 2.70382865 -8.55004525 1.63590337 -5.14208984 0.56176758 C-3 0 -3 0 0 0 Z " fill="#017AC3" transform="translate(297,521)"/>
<path d="M0 0 C3.28812727 1.62691018 6.4163922 3.49088531 9.5625 5.375 C11.46329146 6.48313571 13.36567727 7.58854048 15.26953125 8.69140625 C16.71320068 9.52889404 16.71320068 9.52889404 18.18603516 10.38330078 C41.9900575 24.05935804 67.28973433 35.15116995 92.8125 45.1875 C93.49397095 45.45576599 94.17544189 45.72403198 94.87756348 46.00042725 C103.17315823 49.2530238 111.52443321 52.24975757 120 55 C121.8405347 55.61512395 123.68039399 56.23227292 125.51953125 56.8515625 C126.39673828 57.14546875 127.27394531 57.439375 128.17773438 57.7421875 C129.95415847 58.33740151 131.73019237 58.93378119 133.50585938 59.53125 C137.34414313 60.81541303 141.17180205 62.07266301 145.07421875 63.1484375 C148 64 148 64 149 65 C149.09326716 66.56547048 149.11745582 68.13512772 149.11352539 69.70336914 C149.11344986 70.70433121 149.11337433 71.70529327 149.11329651 72.73658752 C149.10813522 73.8251152 149.10297394 74.91364288 149.09765625 76.03515625 C149.09553383 77.6977372 149.09553383 77.6977372 149.09336853 79.39390564 C149.08775033 82.95013069 149.07519475 86.50629383 149.0625 90.0625 C149.05748734 92.46679597 149.05292403 94.87109292 149.04882812 97.27539062 C149.03777499 103.18361504 149.02101917 109.0918031 149 115 C143.06713442 114.50947459 137.62307041 113.52775111 131.94921875 111.7421875 C131.21721756 111.51858551 130.48521637 111.29498352 129.73103333 111.06460571 C127.38037995 110.34349408 125.03381087 109.61010719 122.6875 108.875 C121.052126 108.36770098 119.41670905 107.86054038 117.78125 107.35351562 C106.42898311 103.81988496 95.12573752 100.20072615 84 96 C82.46448486 95.42113037 82.46448486 95.42113037 80.89794922 94.83056641 C33.91415509 76.99129009 -10.40470933 54.60196455 -53 28 C-49.63523634 24.23283458 -45.89594553 21.9715908 -41.5625 19.5 C-40.83256836 19.07710693 -40.10263672 18.65421387 -39.35058594 18.21850586 C-36.90469241 16.80471382 -34.45296043 15.40149246 -32 14 C-31.08653809 13.47680176 -30.17307617 12.95360352 -29.23193359 12.41455078 C-18.00829852 5.9870117 -18.00829852 5.9870117 -13.08398438 3.21533203 C-10.84939629 1.95020726 -10.84939629 1.95020726 -8.265625 0.08984375 C-4.9748794 -1.49311836 -3.49171205 -1.08778663 0 0 Z " fill="#017AC3" transform="translate(148,722)"/>
<path d="M0 0 C0 17.16 0 34.32 0 52 C-4.063125 53.216875 -8.12625 54.43375 -12.3125 55.6875 C-24.1196399 59.30429268 -35.73916244 63.32299265 -47.3125 67.625 C-48.02991364 67.89009369 -48.74732727 68.15518738 -49.48648071 68.42831421 C-51.59361546 69.20906658 -53.69779284 69.99721469 -55.80078125 70.7890625 C-56.47905472 71.04256973 -57.15732819 71.29607697 -57.8561554 71.55726624 C-61.41498558 72.91423905 -64.86235771 74.38386184 -68.28271484 76.06152344 C-80.00906331 81.7743577 -80.00906331 81.7743577 -84.6796875 80.28125 C-86.13780905 79.55598103 -87.57672228 78.79146323 -89 78 C-91.0592411 77.14203998 -93.12498784 76.29960805 -95.1953125 75.46875 C-97.50750598 74.48454714 -99.81730881 73.49471368 -102.125 72.5 C-103.03060165 72.11065277 -103.03060165 72.11065277 -103.95449829 71.71343994 C-112.76957694 67.91771449 -121.51443023 63.98671852 -130.1875 59.875 C-131.65630615 59.18374023 -131.65630615 59.18374023 -133.15478516 58.47851562 C-134.49162354 57.8355957 -134.49162354 57.8355957 -135.85546875 57.1796875 C-136.63559326 56.80569824 -137.41571777 56.43170898 -138.21948242 56.04638672 C-140 55 -140 55 -141 53 C-119.00766329 41.55160074 -96.35351421 31.35347186 -73 23 C-70.9231153 22.22700712 -68.8494163 21.44590019 -66.77612305 20.66333008 C-63.52031191 19.43445642 -60.25984976 18.21811796 -57 17 C-56.01257813 16.62875 -55.02515625 16.2575 -54.0078125 15.875 C-41.8055973 11.34780132 -29.29290559 7.92566829 -16.75732422 4.46166992 C-12.59772971 3.30879822 -8.46631852 2.15560683 -4.37109375 0.7890625 C-2 0 -2 0 0 0 Z " fill="#027BC3" transform="translate(297,591)"/>
<path d="M0 0 C12.8697584 5.38683118 25.91893304 10.12871454 39.13217163 14.60031128 C39.95009186 14.8772583 40.76801208 15.15420532 41.61071777 15.43954468 C46.67619494 17.15159249 51.74665684 18.84823915 56.81967163 20.53781128 C59.78967163 21.52781128 62.75967163 22.51781128 65.81967163 23.53781128 C65.81967163 40.36781128 65.81967163 57.19781128 65.81967163 74.53781128 C55.9417099 72.21358499 47.02742053 70.08067279 37.59310913 66.80734253 C34.41076506 65.73667811 31.22178926 64.77282306 27.99032593 63.86373901 C19.87576755 61.57918916 11.93972113 58.89009601 4.00717163 56.03781128 C2.98188354 55.6701062 1.95659546 55.30240112 0.90023804 54.92355347 C-6.21871467 52.33505145 -13.20504388 49.48891678 -20.18032837 46.53781128 C-21.65096961 45.93061294 -23.12225913 45.32498074 -24.59439087 44.72140503 C-34.07379225 40.80369828 -43.42930244 36.6476929 -52.74282837 32.35031128 C-53.82451294 31.85136353 -54.90619751 31.35241577 -56.0206604 30.83834839 C-62.46419175 27.84731265 -68.84719517 24.7560571 -75.18032837 21.53781128 C-72.35424281 19.29737335 -69.54886685 17.61203626 -66.30532837 16.04171753 C-65.33321411 15.57080688 -64.36109985 15.09989624 -63.35952759 14.61471558 C-53.2588941 9.80330185 -43.13256174 5.04830415 -32.89321899 0.53826904 C-31.08580753 -0.26120681 -29.28532846 -1.07629631 -27.48501587 -1.89163208 C-16.4789661 -6.66935956 -10.74538672 -4.51237625 0 0 Z " fill="#027BC3" transform="translate(231.18032836914063,693.4621887207031)"/>
<path d="M0 0 C10.456875 -0.2165625 10.456875 -0.2165625 21.125 -0.4375 C24.37947998 -0.53309204 24.37947998 -0.53309204 27.69970703 -0.63061523 C40.85404828 -0.85575084 50.5475164 0.48548554 60.76806641 9.41967773 C69.06613051 17.62149913 73.08299015 28.42576894 73.3125 39.9375 C73.33668435 50.92391126 70.65046269 60.86438602 63 69 C62.53335938 69.54140625 62.06671875 70.0828125 61.5859375 70.640625 C54.34497628 77.99298562 43.18251547 80.21100571 33.24197388 80.47241211 C28.6771322 80.49948678 24.12747657 80.41619524 19.5625 80.3125 C13.106875 80.209375 6.65125 80.10625 0 80 C0 53.6 0 27.2 0 0 Z " fill="#FCFBFC" transform="translate(403,622)"/>
<path d="M0 0 C45.88009657 0 45.88009657 0 56.421875 10.3203125 C57.20304688 11.15175781 57.20304688 11.15175781 58 12 C58.763125 12.78375 59.52625 13.5675 60.3125 14.375 C66.78212296 24.43885794 67.18308553 37.71840131 65.5390625 49.2265625 C63.31540991 59.35072196 59.01631499 67.41666516 50.5078125 73.53125 C34.55581961 82.8738502 18.98718117 80 0 80 C0 53.6 0 27.2 0 0 Z " fill="#FBFBFB" transform="translate(580,535)"/>
<path d="M0 0 C6.06375 -0.0825 12.1275 -0.165 18.375 -0.25 C20.26782715 -0.28641602 22.1606543 -0.32283203 24.11083984 -0.36035156 C34.30861641 -0.47476974 42.87130708 -0.06973776 51.3125 6.3125 C59.71523093 14.71523093 63.15240308 24.29118306 63.4375 36.1875 C63.06493481 47.03996339 59.78974218 57.29603178 51.890625 65.078125 C44.51323778 71.13267037 37.53751602 73.48356019 28.125 73.29296875 C27.40570313 73.28994751 26.68640625 73.28692627 25.9453125 73.28381348 C23.29672589 73.26829441 20.64834622 73.22641251 18 73.1875 C12.06 73.125625 6.12 73.06375 0 73 C0 48.91 0 24.82 0 0 Z " fill="#FBFBFB" transform="translate(403,535)"/>
<path d="M0 0 C2.78587288 1.75456417 5.00197015 3.68738098 7.375 5.97265625 C17.0537838 15.0001087 27.66642281 22.86351148 38.4375 30.53515625 C37.12541508 33.55022806 35.90998822 35.22832949 33.234375 37.12890625 C32.59072998 37.59578857 31.94708496 38.0626709 31.28393555 38.54370117 C30.59211182 39.03588135 29.90028809 39.52806152 29.1875 40.03515625 C22.40087444 44.98640028 15.99075772 50.22133151 9.6640625 55.7421875 C6.83560997 58.20936571 3.9340507 60.5689742 1 62.91015625 C-4.97835639 67.75651617 -10.52721667 73.03429637 -16.12109375 78.3125 C-18.63431328 80.67975142 -21.18413724 82.98288101 -23.8125 85.22265625 C-27.74721036 88.59278345 -31.35629922 92.27525627 -34.97167969 95.98120117 C-36.15138828 97.18301351 -37.35482976 98.36144511 -38.5625 99.53515625 C-38.8925 99.53515625 -39.2225 99.53515625 -39.5625 99.53515625 C-39.79497678 90.69455475 -39.97226347 81.85501661 -40.08062172 73.01201725 C-40.13265067 68.90493822 -40.20311595 64.79996103 -40.31689453 60.6940918 C-40.426165 56.72572394 -40.48546354 52.75936679 -40.51127243 48.78960991 C-40.5296438 47.28116646 -40.56552394 45.77282402 -40.61980057 44.26524544 C-41.02689574 32.48096383 -41.02689574 32.48096383 -37.39564514 27.65596008 C-34.88873719 25.38209296 -32.3513109 23.44607019 -29.5625 21.53515625 C-28.35329041 20.50190203 -27.15518596 19.45511917 -25.98046875 18.3828125 C-22.53695338 15.39881415 -19.05371818 12.46306166 -15.5625 9.53515625 C-14.96373047 9.0261377 -14.36496094 8.51711914 -13.74804688 7.99267578 C-12.01431872 6.52825088 -10.26137652 5.09113193 -8.5 3.66015625 C-7.71435669 2.98932007 -7.71435669 2.98932007 -6.9128418 2.30493164 C-4.41822415 0.32399475 -3.20923305 -0.5821627 0 0 Z " fill="#017AC3" transform="translate(43.5625,717.46484375)"/>
<path d="M0 0 C3.71255157 3.15572172 7.4097461 6.30916652 10.9453125 9.6640625 C11.62319824 10.30529053 12.30108398 10.94651855 12.99951172 11.60717773 C13.70092285 12.27305908 14.40233398 12.93894043 15.125 13.625 C16.62984801 15.04595461 18.13505983 16.46652402 19.640625 17.88671875 C20.37861328 18.5832959 21.11660156 19.27987305 21.87695312 19.99755859 C29.46560107 27.15511269 37.06392519 34.20108933 45.20703125 40.734375 C47.70400079 42.75988875 50.14920777 44.8352548 52.58520508 46.93334961 C58.81869463 52.29872862 65.25686869 57.27453267 71.97143555 62.02856445 C73.70042529 63.28262944 75.35794453 64.63407966 77 66 C77 66.99 77 67.98 77 69 C74.9375 70.8046875 74.9375 70.8046875 72 72.875 C66.81670433 76.60832903 61.81749479 80.51587625 56.875 84.5625 C56.19405273 85.11615234 55.51310547 85.66980469 54.81152344 86.24023438 C51.81500466 88.67969872 48.83324313 91.1310591 45.8984375 93.64453125 C45.02445313 94.38058594 44.15046875 95.11664062 43.25 95.875 C42.51265625 96.51179687 41.7753125 97.14859375 41.015625 97.8046875 C39 99 39 99 37.11328125 99.0078125 C33.97171329 97.50961558 31.52180823 95.28759136 28.9375 93 C27.77288422 91.99002132 26.60750791 90.98091899 25.44140625 89.97265625 C24.57153076 89.21686279 24.57153076 89.21686279 23.68408203 88.44580078 C21.289851 86.39033018 18.83371574 84.41508576 16.375 82.4375 C15.55111282 81.74868744 14.72722565 81.05987488 13.87837219 80.35018921 C12.00230699 78.81838307 10.07848061 77.3427709 8.10661316 75.93643188 C3.74444633 72.56393153 0.52540043 69.91987525 -0.96224976 64.48382568 C-1.27075908 60.32635939 -1.24204148 56.30742661 -1.07421875 52.1484375 C-1.0536601 50.63821118 -1.03802198 49.12791065 -1.02705383 47.61758423 C-0.98537521 43.67331511 -0.87764221 39.73361927 -0.75531006 35.7911377 C-0.64205972 31.75591907 -0.59239287 27.719949 -0.53710938 23.68359375 C-0.41971138 15.78698104 -0.23240374 7.89406183 0 0 Z " fill="#017AC3" transform="translate(4,542)"/>
<path d="M0 0 C2.0535333 1.00353191 4.07068621 2.08297521 6.05859375 3.2109375 C6.63636566 3.53530792 7.21413757 3.85967834 7.80941772 4.19387817 C9.04728091 4.88901282 10.28358952 5.5869218 11.51846313 6.28735352 C14.75572178 8.12212441 18.00569552 9.93391319 21.2578125 11.7421875 C21.90959976 12.1046759 22.56138702 12.46716431 23.23292542 12.84063721 C32.32845523 17.87319247 41.64771547 22.46662394 51 27 C48.39440255 30.04443492 45.39028155 31.45419041 41.8125 33.1875 C40.5519602 33.80525335 39.29146387 34.42309541 38.03100586 35.04101562 C37.37228485 35.36110596 36.71356384 35.68119629 36.03488159 36.01098633 C25.30929802 41.22394262 14.75562439 46.53525491 4.67382812 52.9375 C-0.30215601 55.99677422 -0.30215601 55.99677422 -3.53515625 56.01171875 C-6.91941064 54.62261909 -10.15862627 53.04756363 -13.375 51.3125 C-14.09598877 50.92747314 -14.81697754 50.54244629 -15.55981445 50.14575195 C-28.02334824 43.38110393 -40.27516155 35.98077239 -52 28 C-48.31308914 23.75050873 -43.73256754 21.24710989 -38.9375 18.4375 C-38.06222656 17.91881348 -37.18695313 17.40012695 -36.28515625 16.86572266 C-33.52803704 15.23584255 -30.76508518 13.61632459 -28 12 C-27.09910645 11.4726123 -26.19821289 10.94522461 -25.27001953 10.40185547 C-21.13385996 7.98424639 -16.99303745 5.57470214 -12.84375 3.1796875 C-12.19599609 2.80569824 -11.54824219 2.43170898 -10.88085938 2.04638672 C-9.94983398 1.52842529 -9.94983398 1.52842529 -9 1 C-8.36384766 0.60441895 -7.72769531 0.20883789 -7.07226562 -0.19873047 C-4.26056928 -1.28591089 -2.86577044 -0.9001612 0 0 Z " fill="#027BC3" transform="translate(147,652)"/>
<path d="M0 0 C2.73191486 1.30509484 5.04676239 2.78337084 7.5090332 4.54296875 C8.43449951 5.1978125 9.35996582 5.85265625 10.31347656 6.52734375 C11.29324463 7.22601562 12.2730127 7.9246875 13.2824707 8.64453125 C23.5330622 15.87504192 33.97934441 22.69070899 44.6574707 29.26953125 C42.38001497 31.73091778 39.99573906 33.4391987 37.1496582 35.203125 C36.2529541 35.76418945 35.35625 36.32525391 34.43237305 36.90332031 C33.47540527 37.49854492 32.5184375 38.09376953 31.5324707 38.70703125 C23.49181612 43.75510641 15.62656802 48.96645188 7.93823242 54.53686523 C7.29644043 55.00036377 6.65464844 55.4638623 5.9934082 55.94140625 C5.44217285 56.34456055 4.8909375 56.74771484 4.32299805 57.16308594 C2.50223012 58.37266088 0.62884456 59.32924663 -1.3425293 60.26953125 C-15.74286485 50.86046244 -29.9298821 41.05455458 -43.3425293 30.26953125 C-42.2310285 26.93502885 -41.66405815 26.50356389 -38.9050293 24.5546875 C-38.18275146 24.03890137 -37.46047363 23.52311523 -36.71630859 22.99169922 C-35.54128784 22.17016357 -35.54128784 22.17016357 -34.3425293 21.33203125 C-33.54177979 20.76371582 -32.74103027 20.19540039 -31.91601562 19.60986328 C-30.23842918 18.42067559 -28.55844516 17.23486375 -26.8762207 16.05224609 C-24.4249722 14.32753839 -21.98216602 12.59155078 -19.54174805 10.8515625 C-18.03813559 9.7821389 -16.53424075 8.71311218 -15.0300293 7.64453125 C-14.33200195 7.14832275 -13.63397461 6.65211426 -12.91479492 6.14086914 C-11.62847385 5.23286855 -10.33699671 4.33210645 -9.03930664 3.44042969 C-7.56546801 2.423375 -6.11744603 1.36910402 -4.67456055 0.30859375 C-2.3425293 -0.73046875 -2.3425293 -0.73046875 0 0 Z " fill="#027BC3" transform="translate(89.342529296875,684.73046875)"/>
<path d="M0 0 C3.81335631 2.21152495 7.28779356 4.7920729 10.8125 7.43359375 C18.14159056 12.83985173 25.64664122 17.83081618 33.40478516 22.59912109 C37.37570224 25.04860747 41.11839919 27.53091342 44.6875 30.55859375 C43.78773438 31.10644531 42.88796875 31.65429688 41.9609375 32.21875 C31.63953582 38.55956613 21.60799993 45.28695456 11.62109375 52.140625 C10.77272949 52.71893066 9.92436523 53.29723633 9.05029297 53.89306641 C7.55389903 54.94787106 6.08437044 56.04280861 4.65673828 57.18896484 C2.84765625 58.6328125 2.84765625 58.6328125 -0.3125 60.55859375 C-4.97592917 59.87758505 -9.15138267 56.03900907 -12.9375 53.30859375 C-13.66662598 52.78789307 -14.39575195 52.26719238 -15.14697266 51.73071289 C-17.54147191 50.01481564 -19.928128 48.28853374 -22.3125 46.55859375 C-23.17037109 45.93645996 -24.02824219 45.31432617 -24.91210938 44.67333984 C-27.50781698 42.78620847 -30.09887497 40.89292677 -32.6875 38.99609375 C-33.5017041 38.40086914 -34.3159082 37.80564453 -35.15478516 37.19238281 C-35.91581543 36.63131836 -36.6768457 36.07025391 -37.4609375 35.4921875 C-38.13302246 34.99775146 -38.80510742 34.50331543 -39.49755859 33.99389648 C-41.23909355 32.61664548 -42.77921626 31.16173435 -44.3125 29.55859375 C-35.56822315 21.9540204 -26.16094952 15.5157 -16.54638672 9.07714844 C-14.53653807 7.71089067 -12.56202534 6.30941446 -10.59765625 4.87890625 C-9.55480469 4.13382813 -8.51195312 3.38875 -7.4375 2.62109375 C-6.55320313 1.97269531 -5.66890625 1.32429687 -4.7578125 0.65625 C-2.3125 -0.44140625 -2.3125 -0.44140625 0 0 Z " fill="#027BC3" transform="translate(89.3125,614.44140625)"/>
<path d="M0 0 C2.87315502 2.87315502 3.8558955 6.42680246 5.265625 10.1640625 C5.58150574 10.98893158 5.89738647 11.81380066 6.22283936 12.66366577 C7.23692436 15.31555453 8.24349822 17.97022509 9.25 20.625 C9.91228008 22.35955848 10.57503557 24.09393551 11.23828125 25.828125 C14.76048358 35.04957777 18.24287615 44.28575318 21.69750977 53.53271484 C23.01074009 57.02859058 24.34498857 60.51528337 25.6875 64 C26.08710937 65.03898438 26.48671875 66.07796875 26.8984375 67.1484375 C27.58538818 68.92671408 28.27725164 70.70311017 28.9765625 72.4765625 C30.14178481 75.47129273 31 77.75511361 31 81 C10.21 81 -10.58 81 -32 81 C-30.02382976 74.41276588 -28.00558129 68.17554099 -25.41015625 61.85546875 C-24.89858475 60.59442574 -24.89858475 60.59442574 -24.37667847 59.3079071 C-23.27642602 56.59925917 -22.16963616 53.89334065 -21.0625 51.1875 C-20.30055473 49.3160433 -19.53891977 47.44446023 -18.77758789 45.57275391 C-12.58133252 30.3559402 -6.32107364 15.16538183 0 0 Z " fill="#FCFCFC" transform="translate(988,556)"/>
<path d="M0 0 C3.8534075 1.63170605 6.76013618 4.21500055 9.875 6.9375 C16.22095784 12.39827064 22.75673906 17.5770043 29.36181641 22.71875 C33.27035797 25.77568385 37.13321698 28.89053623 41 32 C37.36032284 35.78962641 33.5383569 39.05237615 29.375 42.25 C28.12955741 43.21791302 26.88477365 44.18667432 25.640625 45.15625 C25.02638672 45.63449219 24.41214844 46.11273437 23.77929688 46.60546875 C21.203591 48.62418883 18.66091556 50.6815996 16.125 52.75 C15.2484375 53.46414063 14.371875 54.17828125 13.46875 54.9140625 C10.47367457 57.44471168 7.63614223 60.12276651 4.8515625 62.8828125 C3 64 3 64 0.6875 64.0234375 C-3.06068264 62.59607725 -5.69790676 60.15595367 -8.625 57.5 C-9.86747522 56.40119569 -11.11097663 55.30355072 -12.35546875 54.20703125 C-12.9695459 53.66256348 -13.58362305 53.1180957 -14.21630859 52.55712891 C-16.7337261 50.35947097 -19.32906681 48.27641122 -21.9375 46.1875 C-25.71920148 43.12426611 -29.21912983 39.94577021 -32.5625 36.41015625 C-34.14973012 34.76534695 -34.14973012 34.76534695 -37 33 C-35.90303373 29.7091012 -35.15198144 29.03203283 -32.5625 26.875 C-29.43490898 24.22900264 -26.38646468 21.52751618 -23.375 18.75 C-15.96252273 12.05114632 -8.01315295 5.96052264 0 0 Z " fill="#027BC3" transform="translate(41,647)"/>
<path d="M0 0 C18.11719661 -2.67211723 18.11719661 -2.67211723 24.02636719 1.39453125 C27.67670179 5.27975695 30.14793312 9.90728083 32.64794922 14.58349609 C34.85316633 18.5248538 37.52813408 22.10676146 40.1875 25.75 C45.19124269 32.78757383 50.08460998 39.89999219 55 47 C55.33 33.14 55.66 19.28 56 5 C53.03 5 50.06 5 47 5 C47 3.35 47 1.7 47 0 C55.25 0 63.5 0 72 0 C72 1.65 72 3.3 72 5 C69.03 5 66.06 5 63 5 C63.00222061 5.82463242 63.00444122 6.64926483 63.00672913 7.49888611 C63.02673052 15.25398257 63.04197335 23.00906661 63.05181217 30.76418209 C63.05704036 34.751572 63.06413684 38.73894067 63.07543945 42.72631836 C63.08627061 46.57125114 63.09227732 50.41616345 63.09487724 54.26111031 C63.09673108 55.73118983 63.10035091 57.20126818 63.10573006 58.67133904 C63.11294355 60.72354467 63.11399081 62.77566467 63.11352539 64.82788086 C63.115746 65.99814316 63.11796661 67.16840546 63.12025452 68.37413025 C63 71 63 71 62 72 C58.82421875 72.55859375 58.82421875 72.55859375 55 72 C52.42219706 69.71500399 50.68032109 66.93804989 48.8125 64.0625 C48.25715576 63.25071289 47.70181152 62.43892578 47.12963867 61.60253906 C45.97322649 59.91125144 44.8259314 58.21369657 43.6875 56.51025391 C41.13128877 52.70774177 38.4682684 48.98326904 35.8125 45.25 C34.92258185 43.98479346 34.03326581 42.71916322 33.14453125 41.453125 C28.78834824 35.28412049 24.38952019 29.14532827 20 23 C19.67 37.19 19.34 51.38 19 66 C21.64 66 24.28 66 27 66 C27 67.32 27 68.64 27 70 C19.08 70 11.16 70 3 70 C3 68.35 3 66.7 3 65 C5.64 65 8.28 65 11 65 C10.91563151 57.75014115 10.82076205 50.50050003 10.71247292 43.25095654 C10.66252038 39.88471284 10.61619053 36.51850037 10.578125 33.15209961 C10.53257165 29.2822002 10.47456059 25.41265975 10.4140625 21.54296875 C10.40251129 20.33352097 10.39096008 19.12407318 10.37905884 17.87797546 C10.35918915 16.75703995 10.33931946 15.63610443 10.31884766 14.48120117 C10.30552399 13.49302902 10.29220032 12.50485687 10.2784729 11.48674011 C10.16446074 8.74981189 10.16446074 8.74981189 8 6 C6.03638136 5.42251197 6.03638136 5.42251197 3.875 5.3125 C2.59625 5.209375 1.3175 5.10625 0 5 C0 3.35 0 1.7 0 0 Z " fill="#2F2C2D" transform="translate(450,767)"/>
<path d="M0 0 C9.9 0 19.8 0 30 0 C30 1.65 30 3.3 30 5 C27.69 5 25.38 5 23 5 C23.04169232 12.01133589 23.11404173 19.02187947 23.20751953 26.03271484 C23.23571195 28.41675663 23.25693503 30.80089158 23.27099609 33.18505859 C23.29244869 36.61604452 23.33911364 40.04591224 23.390625 43.4765625 C23.39185364 44.53928375 23.39308228 45.602005 23.39434814 46.69692993 C23.51375994 52.75625545 23.94584875 56.3876409 28 61 C32.78867144 64.48084101 39.39190327 63.52261833 45 63 C48.85739902 62.04321971 51.79182775 60.63855068 54.18927002 57.38708496 C57.23356418 51.63568529 57.60118 46.59214393 57.609375 40.15625 C57.62591125 39.14655151 57.64244751 38.13685303 57.65948486 37.09655762 C57.70775051 33.89764187 57.72928852 30.69920079 57.75 27.5 C57.77817754 25.32028889 57.80810745 23.14059969 57.83984375 20.9609375 C57.91350399 15.64066411 57.96320961 10.32065092 58 5 C55.03 5 52.06 5 49 5 C49 3.35 49 1.7 49 0 C57.25 0 65.5 0 74 0 C74 1.65 74 3.3 74 5 C71.03 5 68.06 5 65 5 C65.0314209 7.11039673 65.0314209 7.11039673 65.06347656 9.26342773 C65.13620622 14.51332307 65.1819196 19.76317437 65.21972656 25.01342773 C65.23976707 27.28010563 65.26700711 29.54673232 65.30175781 31.81323242 C65.35060868 35.08264856 65.37304512 38.35137757 65.390625 41.62109375 C65.41127014 42.62458359 65.43191528 43.62807343 65.45318604 44.66197205 C65.4554663 51.90990479 64.274763 58.24484054 59.38702393 63.84959412 C52.10272767 70.90665319 43.35366948 71.53055063 33.67358398 71.48999023 C26.21291454 71.23562271 20.78174668 69.40924058 15.17578125 64.35546875 C8.55525684 57.25403457 7.56061161 50.41520285 7.70703125 41.03515625 C7.71127609 40.00184677 7.71552094 38.96853729 7.71989441 37.90391541 C7.73660606 34.62317178 7.77424489 31.34305608 7.8125 28.0625 C7.82755652 25.83008703 7.84124323 23.59766438 7.85351562 21.36523438 C7.8864849 15.90994419 7.93660913 10.45501698 8 5 C5.36 5 2.72 5 0 5 C0 3.35 0 1.7 0 0 Z " fill="#2D2A2B" transform="translate(968,767)"/>
<path d="M0 0 C1.98 0 3.96 0 6 0 C6 5.94 6 11.88 6 18 C4.02 18 2.04 18 0 18 C0 15.36 0 12.72 0 10 C-7.26 10 -14.52 10 -22 10 C-22 18.25 -22 26.5 -22 35 C-16.39 35 -10.78 35 -5 35 C-5 32.36 -5 29.72 -5 27 C-3.02 27 -1.04 27 1 27 C1 33.93 1 40.86 1 48 C-0.98 48 -2.96 48 -5 48 C-5 45.69 -5 43.38 -5 41 C-10.61 41 -16.22 41 -22 41 C-22 49.58 -22 58.16 -22 67 C-14.41 67 -6.82 67 1 67 C1 64.36 1 61.72 1 59 C2.98 59 4.96 59 7 59 C7 63.62 7 68.24 7 73 C-9.83 73 -26.66 73 -44 73 C-44 71.68 -44 70.36 -44 69 C-41.36 69 -38.72 69 -36 69 C-36 48.87 -36 28.74 -36 8 C-38.64 8 -41.28 8 -44 8 C-44 6.35 -44 4.7 -44 3 C-29.48 3 -14.96 3 0 3 C0 2.01 0 1.02 0 0 Z " fill="#2B2728" transform="translate(1248,764)"/>
<path d="M0 0 C1.2065625 0.0309375 1.2065625 0.0309375 2.4375 0.0625 C2.7675 1.0525 3.0975 2.0425 3.4375 3.0625 C19.6075 3.0625 35.7775 3.0625 52.4375 3.0625 C52.4375 2.4025 52.4375 1.7425 52.4375 1.0625 C54.4175 1.0625 56.3975 1.0625 58.4375 1.0625 C58.4375 6.6725 58.4375 12.2825 58.4375 18.0625 C56.4575 18.0625 54.4775 18.0625 52.4375 18.0625 C52.4375 15.4225 52.4375 12.7825 52.4375 10.0625 C46.8275 10.0625 41.2175 10.0625 35.4375 10.0625 C35.4375 29.2025 35.4375 48.3425 35.4375 68.0625 C38.4075 68.0625 41.3775 68.0625 44.4375 68.0625 C44.4375 69.7125 44.4375 71.3625 44.4375 73.0625 C33.2175 73.0625 21.9975 73.0625 10.4375 73.0625 C10.4375 71.4125 10.4375 69.7625 10.4375 68.0625 C13.7375 68.0625 17.0375 68.0625 20.4375 68.0625 C20.4375 48.9225 20.4375 29.7825 20.4375 10.0625 C14.4975 10.0625 8.5575 10.0625 2.4375 10.0625 C2.4375 12.7025 2.4375 15.3425 2.4375 18.0625 C0.4575 18.0625 -1.5225 18.0625 -3.5625 18.0625 C-3.58934312 15.24993719 -3.60926188 12.43762759 -3.625 9.625 C-3.63337891 8.82255859 -3.64175781 8.02011719 -3.65039062 7.19335938 C-3.6590143 5.14954779 -3.6147815 3.10566098 -3.5625 1.0625 C-2.5625 0.0625 -2.5625 0.0625 0 0 Z " fill="#312D2E" transform="translate(858.5625,763.9375)"/>
<path d="M0 0 C1.98 0 3.96 0 6 0 C6 6.27 6 12.54 6 19 C4.02 19 2.04 19 0 19 C-0.020625 17.741875 -0.04125 16.48375 -0.0625 15.1875 C-0.26090879 12.98639279 -0.26090879 12.98639279 -1 11 C-5.2188321 8.35288966 -9.05369397 7.24730126 -14 8 C-16.9901643 9.40878096 -16.9901643 9.40878096 -19 12 C-19.63270991 15.86656057 -19.6224775 18.00962023 -17.51953125 21.35546875 C-13.51716565 25.55640132 -8.63481635 28.3150652 -3.73046875 31.36328125 C2.45355832 35.32476282 7.42008259 39.42801281 10.4375 46.25 C11.47267614 53.15117428 11.4946307 59.51209931 7.4375 65.4375 C3.14070696 70.36111932 -0.80072315 72.67483985 -7.34375 73.33984375 C-14.26152507 73.52461338 -19.75110558 72.99946932 -26 70 C-26 70.99 -26 71.98 -26 73 C-27.98 73 -29.96 73 -32 73 C-32 66.73 -32 60.46 -32 54 C-30.02 54 -28.04 54 -26 54 C-25.979375 55.2375 -25.95875 56.475 -25.9375 57.75 C-25.44568809 61.49840426 -25.15287375 61.86989468 -22.0625 64.5 C-17.5047618 66.60501723 -12.91231835 66.78829433 -8 66 C-4.73276023 64.80400957 -4.73276023 64.80400957 -3 62 C-2.00079126 58.73976122 -2.00872771 56.26632344 -3 53 C-6.35350471 48.49071821 -11.10934632 45.55957505 -15.76171875 42.5234375 C-16.74773071 41.87942993 -16.74773071 41.87942993 -17.75366211 41.22241211 C-19.05257863 40.38638452 -20.36168499 39.56591277 -21.68188477 38.76391602 C-26.98499794 35.42543307 -30.96135415 31.50738699 -32.77734375 25.375 C-33.23495771 18.58891976 -32.73211428 13.67690389 -28.9375 7.8125 C-24.83864765 3.36810487 -19.86838199 1.25584814 -13.890625 0.72265625 C-9.43564105 0.67376008 -5.29694765 0.74459724 -1 2 C-0.67 1.34 -0.34 0.68 0 0 Z " fill="#292526" transform="translate(611,765)"/>
<path d="M0 0 C1.98 0 3.96 0 6 0 C6 6.27 6 12.54 6 19 C4.02 19 2.04 19 0 19 C0 16.03 0 13.06 0 10 C-5.94 10 -11.88 10 -18 10 C-18 29.14 -18 48.28 -18 68 C-14.7 68 -11.4 68 -8 68 C-8 69.65 -8 71.3 -8 73 C-19.22 73 -30.44 73 -42 73 C-42 71.35 -42 69.7 -42 68 C-38.7 68 -35.4 68 -32 68 C-32 48.86 -32 29.72 -32 10 C-37.94 10 -43.88 10 -50 10 C-50 12.97 -50 15.94 -50 19 C-51.98 19 -53.96 19 -56 19 C-56 13.06 -56 7.12 -56 1 C-54.02 1 -52.04 1 -50 1 C-50 1.66 -50 2.32 -50 3 C-33.5 3 -17 3 0 3 C0 2.01 0 1.02 0 0 Z " fill="#282425" transform="translate(731,764)"/>
<path d="M0 0 C2.31 0 4.62 0 7 0 C7 0.66 7 1.32 7 2 C23.17 2 39.34 2 56 2 C56 1.34 56 0.68 56 0 C57.98 0 59.96 0 62 0 C62 5.94 62 11.88 62 18 C60.02 18 58.04 18 56 18 C56 15.03 56 12.06 56 9 C50.06 9 44.12 9 38 9 C38 28.47 38 47.94 38 68 C41.63 68 45.26 68 49 68 C49 69.32 49 70.64 49 72 C37.45 72 25.9 72 14 72 C14 70.35 14 68.7 14 67 C17.3 67 20.6 67 24 67 C24 47.86 24 28.72 24 9 C18.39 9 12.78 9 7 9 C7 11.97 7 14.94 7 18 C5.00045254 18.04254356 2.99958364 18.04080783 1 18 C0 17 0 17 -0.09765625 13.18359375 C-0.09098089 11.60153318 -0.07901875 10.01948841 -0.0625 8.4375 C-0.05798828 7.63119141 -0.05347656 6.82488281 -0.04882812 5.99414062 C-0.03700518 3.99606244 -0.01906914 1.99802217 0 0 Z " fill="#2E2A2B" transform="translate(1091,765)"/>
<path d="M0 0 C0 11.88 0 23.76 0 36 C-7.04380084 34.71930894 -13.55376637 33.42241009 -20.3125 31.3125 C-21.14990723 31.05557373 -21.98731445 30.79864746 -22.85009766 30.53393555 C-25.56895589 29.69630244 -28.28443123 28.84823065 -31 28 C-31.97727051 27.69835937 -32.95454102 27.39671875 -33.96142578 27.0859375 C-36.93468909 26.16797198 -39.90525317 25.24177303 -42.875 24.3125 C-43.79579346 24.02737549 -44.71658691 23.74225098 -45.6652832 23.44848633 C-50.35169858 21.96553128 -54.68337096 20.35776273 -59 18 C-56.37187191 15.37187191 -53.45989006 14.67130041 -50 13.57421875 C-49.29606613 13.34606476 -48.59213226 13.11791077 -47.86686707 12.88284302 C-45.58004708 12.14421877 -43.29029964 11.41525681 -41 10.6875 C-39.43920165 10.18776705 -37.87841063 9.68801119 -36.31762695 9.18823242 C-28.30401467 6.63196962 -20.28337947 4.09765583 -12.1875 1.8125 C-11.50365234 1.6168042 -10.81980469 1.4211084 -10.11523438 1.21948242 C-6.50838893 0.23881292 -3.83165156 0 0 0 Z " fill="#067DC4" transform="translate(297,662)"/>
<path d="M0 0 C7.86126927 6.7382308 7.86126927 6.7382308 10.46484375 9.40234375 C11.03332031 9.97927979 11.60179687 10.55621582 12.1875 11.15063477 C12.765 11.74030029 13.3425 12.32996582 13.9375 12.9375 C18.79000703 17.84066084 23.6841807 22.59476085 29 27 C29.598125 27.50273438 30.19625 28.00546875 30.8125 28.5234375 C32.20302989 29.68865005 33.60058054 30.84547895 35 32 C33.51407301 35.57101809 31.53257153 37.54542756 28.625 40.0625 C27.73039062 40.84882812 26.83578125 41.63515625 25.9140625 42.4453125 C24.95242187 43.28835938 23.99078125 44.13140625 23 45 C20.98950643 46.80109477 18.99233801 48.61635596 17 50.4375 C16.25133667 51.12078369 16.25133667 51.12078369 15.48754883 51.81787109 C11.14122824 55.81285295 6.98500936 59.97231098 2.86328125 64.19921875 C1 66 1 66 0 66 C0 44.22 0 22.44 0 0 Z " fill="#027BC3" transform="translate(4,681)"/>
<path d="M0 0 C8.98410504 6.73807878 8.98410504 6.73807878 12.1484375 10.0234375 C12.83945557 10.73121338 13.53047363 11.43898926 14.24243164 12.16821289 C14.9461792 12.89645264 15.64992676 13.62469238 16.375 14.375 C22.28073472 20.39441834 28.15783659 26.04069237 35 31 C33.9123293 34.2630121 33.24933287 34.87839928 30.6875 37 C21.765027 44.58886494 13.29192956 52.56851918 5.10083008 60.93603516 C3.75100221 62.30774537 2.37779465 63.65638321 1 65 C0.67 65 0.34 65 0 65 C0 43.55 0 22.1 0 0 Z " fill="#027BC3" transform="translate(4,612)"/>
<path d="M0 0 C9.9 0 19.8 0 30 0 C30 1.65 30 3.3 30 5 C27.36 5 24.72 5 22 5 C22 25.13 22 45.26 22 66 C24.64 66 27.28 66 30 66 C30 67.32 30 68.64 30 70 C20.1 70 10.2 70 0 70 C0 68.35 0 66.7 0 65 C2.64 65 5.28 65 8 65 C8 45.2 8 25.4 8 5 C5.36 5 2.72 5 0 5 C0 3.35 0 1.7 0 0 Z " fill="#2B2728" transform="translate(367,767)"/>
<path d="M0 0 C9.9 0 19.8 0 30 0 C30 1.65 30 3.3 30 5 C27.36 5 24.72 5 22 5 C22 25.13 22 45.26 22 66 C24.64 66 27.28 66 30 66 C30 67.32 30 68.64 30 70 C20.1 70 10.2 70 0 70 C0 68.68 0 67.36 0 66 C2.64 66 5.28 66 8 66 C8 45.87 8 25.74 8 5 C5.36 5 2.72 5 0 5 C0 3.35 0 1.7 0 0 Z " fill="#272425" transform="translate(782,767)"/>
<path d="M0 0 C3.80635497 3.20760251 7.54563567 6.40746109 11 10 C10.01 10 9.02 10 8 10 C5.69 7.69 3.38 5.38 1 3 C0.67 24.78 0.34 46.56 0 69 C-0.33 69 -0.66 69 -1 69 C-1.02312589 60.1511761 -1.04091634 51.30236253 -1.05181217 42.45351505 C-1.05704046 38.34505715 -1.06413713 34.23661986 -1.07543945 30.12817383 C-1.08627025 26.16653172 -1.09227724 22.20490948 -1.09487724 18.24325371 C-1.09673114 16.72851689 -1.1003511 15.21378121 -1.10573006 13.69905281 C-1.11294307 11.58458187 -1.11399083 9.47019406 -1.11352539 7.35571289 C-1.115746 6.14992081 -1.11796661 4.94412872 -1.12025452 3.70179749 C-1 1 -1 1 0 0 Z " fill="#BDDDEF" transform="translate(4,540)"/>
<path d="M0 0 C0.66 0.33 1.32 0.66 2 1 C-3.15880923 8.33093944 -10.37448725 14.04260619 -17 20 C-17.77601562 20.70382812 -18.55203125 21.40765625 -19.3515625 22.1328125 C-20.38410156 23.05707031 -20.38410156 23.05707031 -21.4375 24 C-22.03433594 24.53625 -22.63117187 25.0725 -23.24609375 25.625 C-25.07403758 27.05804282 -26.89214713 28.03641012 -29 29 C-21.69754609 20.07477855 -13.42709739 11.84483715 -4.62109375 4.40234375 C-3.00223886 3.00193675 -1.49481669 1.53116482 0 0 Z " fill="#E6F2F9" transform="translate(34,718)"/>
<path d="M0 0 C4.19174654 1.04793663 5.21592961 1.91763635 8 5 C7.01 5 6.02 5 5 5 C4.01 4.01 3.02 3.02 2 2 C1.67 23.12 1.34 44.24 1 66 C0.67 66 0.34 66 0 66 C0 44.22 0 22.44 0 0 Z " fill="#B8DAEE" transform="translate(3,611)"/>
<path d="M0 0 C0.66 0.33 1.32 0.66 2 1 C-4.77751597 9.78566885 -13.30567968 17.15322275 -22 24 C-22.66 23.67 -23.32 23.34 -24 23 C-10.71495891 9.53269463 -10.71495891 9.53269463 -4.5859375 4.3671875 C-2.97717593 2.98032408 -1.48334641 1.51930632 0 0 Z " fill="#DBECF6" transform="translate(33,789)"/>
<path d="M0 0 C0.66 0.33 1.32 0.66 2 1 C-0.17029609 5.12356257 -2.57852757 7.53422385 -6.25 10.375 C-10.81721321 13.99601764 -15.00535071 17.75994564 -19 22 C-19.66 21.67 -20.32 21.34 -21 21 C-14.07 14.07 -7.14 7.14 0 0 Z " fill="#D7EAF5" transform="translate(26,655)"/>
<path d="M0 0 C3.06715595 1.35945995 5.07741042 2.88007535 7.375 5.3125 C10.42301972 8.45926766 13.58851686 11.2541721 17 14 C16.34 14.66 15.68 15.32 15 16 C12.49599357 13.5248518 9.99748094 11.04423106 7.5 8.5625 C6.78457031 7.85544922 6.06914062 7.14839844 5.33203125 6.41992188 C4.65527344 5.74638672 3.97851562 5.07285156 3.28125 4.37890625 C2.65283203 3.7557251 2.02441406 3.13254395 1.37695312 2.49047852 C0 1 0 1 0 0 Z " fill="#D8EBF5" transform="translate(5,681)"/>
<path d="M0 0 C0.99 0.33 1.98 0.66 3 1 C-3.435 6.94 -3.435 6.94 -10 13 C-10.66 12.67 -11.32 12.34 -12 12 C-8.04 8.04 -4.08 4.08 0 0 Z " fill="#CFE5F3" transform="translate(17,734)"/>
<path d="M0 0 C3.71045247 1.57780923 6.29906384 3.90703248 9.25 6.625 C10.14203125 7.44226563 11.0340625 8.25953125 11.953125 9.1015625 C12.96632813 10.04128906 12.96632813 10.04128906 14 11 C13.34 11.66 12.68 12.32 12 13 C9.99698146 11.0238076 7.99750133 9.04425526 6 7.0625 C5.42765625 6.49853516 4.8553125 5.93457031 4.265625 5.35351562 C2.82474495 3.92121224 1.41012857 2.46258871 0 1 C0 0.67 0 0.34 0 0 Z " fill="#E9F3F9" transform="translate(10,616)"/>
<path d="M0 0 C2.99220268 1.36370299 5.29026529 2.94908083 7.75 5.125 C8.67039062 5.93324219 8.67039062 5.93324219 9.609375 6.7578125 C10.06828125 7.16773438 10.5271875 7.57765625 11 8 C10.34 8.66 9.68 9.32 9 10 C7.49410612 8.71520959 5.99542625 7.42195918 4.5 6.125 C3.6646875 5.40570312 2.829375 4.68640625 1.96875 3.9453125 C1.3190625 3.30335938 0.669375 2.66140625 0 2 C0 1.34 0 0.68 0 0 Z " fill="#E2F0F8" transform="translate(14,550)"/>
<path d="M0 0 C0.66 0.33 1.32 0.66 2 1 C-0.49825283 4.21203935 -3.0702992 7.17493137 -6 10 C-6.33 9.01 -6.66 8.02 -7 7 C-4.69 4.69 -2.38 2.38 0 0 Z " fill="#E5F1F8" transform="translate(33,789)"/>
</svg>
