<?xml version="1.0" encoding="UTF-8"?>
<svg version="1.1" xmlns="http://www.w3.org/2000/svg" width="1024" height="512">
<path d="M0 0 C337.92 0 675.84 0 1024 0 C1024 168.96 1024 337.92 1024 512 C686.08 512 348.16 512 0 512 C0 343.04 0 174.08 0 0 Z " fill="#FEFEFE" transform="translate(0,0)"/>
<path d="M0 0 C64.33333333 0 64.33333333 0 76 9 C78.73980102 11.78171003 80.91778954 14.70270651 83 18 C83.65162109 19.01513672 83.65162109 19.01513672 84.31640625 20.05078125 C88.38581091 27.57988883 88.223135 36.68044837 86.33984375 44.87109375 C84.09753066 51.09326991 80.28093387 56.02161062 76 61 C76.91458984 61.42925781 76.91458984 61.42925781 77.84765625 61.8671875 C84.44723425 65.34064961 88.20519091 72.23944761 91.3125 78.75 C93.56730387 89.40907285 92.01062953 99.5237511 86.25 108.75 C79.92152726 117.58803951 72.13328988 121.62223671 62 125 C41.54 125 21.08 125 0 125 C0 83.75 0 42.5 0 0 Z " fill="#151549" transform="translate(10,194)"/>
<path d="M0 0 C17.12552253 -0.4991651 31.74619019 3.71849815 45.41015625 14.15625 C45.98765625 14.5790625 46.56515625 15.001875 47.16015625 15.4375 C51.40707517 18.71116666 54.36530197 22.8049157 57.41015625 27.15625 C56.02639972 30.50536767 54.6895611 31.93030753 51.56640625 33.734375 C50.81488281 34.17265625 50.06335938 34.6109375 49.2890625 35.0625 C48.50402344 35.5059375 47.71898437 35.949375 46.91015625 36.40625 C46.12511719 36.86515625 45.34007812 37.3240625 44.53125 37.796875 C38.70233445 41.15625 38.70233445 41.15625 36.41015625 41.15625 C35.42015625 39.609375 35.42015625 39.609375 34.41015625 38.03125 C31.06211719 33.16674619 26.61145721 30.75690048 21.41015625 28.15625 C20.745 27.81335938 20.07984375 27.47046875 19.39453125 27.1171875 C10.06268312 23.18605463 -2.8436125 23.60266594 -12.15234375 27.21875 C-23.32760952 32.77551198 -29.4923932 39.6808956 -34.46484375 51.1796875 C-37.9187525 62.16503617 -36.24650256 74.85308977 -31.18359375 84.96484375 C-25.30913519 95.17587196 -17.36237438 100.42112988 -6.08203125 103.5 C5.83951813 105.74029116 18.726509 104.86643835 29.28515625 98.53125 C35.11788824 94.2969618 38.2435617 88.4894391 41.41015625 82.15625 C29.20015625 82.15625 16.99015625 82.15625 4.41015625 82.15625 C4.41015625 74.89625 4.41015625 67.63625 4.41015625 60.15625 C24.87015625 60.15625 45.33015625 60.15625 66.41015625 60.15625 C66.41015625 81.24301979 64.87064046 97.6419148 49.75 113.046875 C35.18167406 126.18025732 18.76578304 130.10343647 -0.34423828 129.29541016 C-17.26089231 128.24708522 -31.91769893 121.35005492 -43.58984375 109.15625 C-44.20988281 108.56714844 -44.82992187 107.97804688 -45.46875 107.37109375 C-53.78464139 98.90637208 -59.9294348 85.98740609 -60.58984375 74.15625 C-60.63608887 73.37475586 -60.68233398 72.59326172 -60.72998047 71.78808594 C-61.68913933 53.1169153 -58.68528161 36.58521184 -45.9296875 22.02734375 C-33.54800178 8.65112841 -18.33483247 0.79803406 0 0 Z " fill="#EF4243" transform="translate(644.58984375,191.84375)"/>
<path d="M0 0 C2.29024669 1.67541536 4.33840419 3.43280635 6.390625 5.390625 C7.01453125 5.97457031 7.6384375 6.55851563 8.28125 7.16015625 C17.30277905 16.4758656 20.69320338 28.0085337 20.70532227 40.61352539 C20.49716662 52.25915632 16.78456353 61.44173802 9.390625 70.390625 C8.91367188 71.01453125 8.43671875 71.6384375 7.9453125 72.28125 C1.63739861 79.61296143 -10.01321556 85.447359 -19.609375 86.390625 C-34.32507573 87.3476162 -46.07120047 85.22365058 -57.609375 75.390625 C-66.82482847 67.04145403 -72.93475544 56.0558476 -73.8125 43.48046875 C-74.02994702 28.85715657 -70.24189868 17.00970641 -60.37109375 6.05078125 C-44.13692207 -9.24749583 -19.07352491 -11.76391057 0 0 Z " fill="#161649" transform="translate(186.609375,234.609375)"/>
<path d="M0 0 C3.87807585 2.19295956 7.29964611 4.52031233 10.625 7.484375 C11.21667969 7.96132812 11.80835938 8.43828125 12.41796875 8.9296875 C18.57460979 14.33883349 25.1166171 25.11803464 25.78613281 33.50219727 C26.15862913 53.89203932 26.15862913 53.89203932 22.625 61.484375 C22.27308594 62.24621094 21.92117188 63.00804687 21.55859375 63.79296875 C15.82911002 75.00611677 7.08176254 82.6539384 -4.625 87.359375 C-18.31132505 91.46527252 -31.67042157 90.63701224 -44.21484375 83.9765625 C-56.05626683 76.99190966 -62.11281719 68.06416537 -66.484375 55.2265625 C-69.41772539 42.90134464 -68.18843769 30.15710741 -62.0546875 19.10546875 C-49.13885697 -1.75042154 -22.69989007 -10.52234488 0 0 Z " fill="#161649" transform="translate(438.375,231.515625)"/>
<path d="M0 0 C0.92103516 -0.01224609 1.84207031 -0.02449219 2.79101562 -0.03710938 C15.70229361 -0.06459968 25.30888737 4.15995406 34.7421875 12.96875 C44.93390087 23.89118999 47.42061097 37.40976378 47.05078125 51.828125 C46.8125 55.1875 46.8125 55.1875 45.8125 56.1875 C43.75693339 56.28163687 41.69809819 56.30492998 39.64038086 56.30102539 C38.99649918 56.30117142 38.35261749 56.30131744 37.68922424 56.3014679 C35.55189697 56.30076885 33.41465587 56.29297691 31.27734375 56.28515625 C29.79903715 56.28329204 28.32072993 56.28186815 26.84242249 56.28086853 C22.94451198 56.27704359 19.04663851 56.26721352 15.14874268 56.25616455 C11.17403667 56.24594992 7.19932471 56.2413708 3.22460938 56.23632812 C-4.579444 56.22559122 -12.38346682 56.20851509 -20.1875 56.1875 C-19.57489013 57.47546937 -18.95498164 58.75996884 -18.33203125 60.04296875 C-17.98760986 60.75864014 -17.64318848 61.47431152 -17.28833008 62.21166992 C-14.98199995 66.35119747 -10.87883288 68.92669055 -6.52734375 70.640625 C2.42692492 72.73344239 10.98898099 72.0411742 18.95703125 67.4765625 C20.93338316 66.18479779 20.93338316 66.18479779 22.8125 64.1875 C27.52154889 64.45052796 31.17616935 66.89534197 35.125 69.25 C35.77017578 69.62705078 36.41535156 70.00410156 37.08007812 70.39257812 C38.66128152 71.31787493 40.2374146 72.25182681 41.8125 73.1875 C40.81863749 78.93680589 36.41173222 82.15719844 31.9921875 85.609375 C20.21806587 93.59016037 6.26285724 94.99992258 -7.55664062 92.8125 C-19.2401119 90.42292163 -29.55697765 84.67579288 -36.375 74.8125 C-37.33129822 73.28242285 -38.26975867 71.74100996 -39.1875 70.1875 C-39.58066406 69.5378125 -39.97382812 68.888125 -40.37890625 68.21875 C-46.59042 57.0334411 -46.58935807 43.23037633 -43.21875 31.16796875 C-38.93157825 18.77739281 -31.52918096 9.97940569 -19.8125 4.1875 C-12.71743659 0.84864663 -7.72734711 0.00529633 0 0 Z " fill="#EF4344" transform="translate(967.1875,227.8125)"/>
<path d="M0 0 C9.32142819 7.83998692 14.41053186 16.23159557 18.25 27.75 C18.25 34.68 18.25 41.61 18.25 48.75 C-3.86 48.75 -25.97 48.75 -48.75 48.75 C-42.75143065 59.26714498 -42.75143065 59.26714498 -32.75 63.75 C-24.10019438 64.77359107 -16.22709216 64.52514295 -8.75 59.75 C-8.028125 59.13125 -7.30625 58.5125 -6.5625 57.875 C-5.964375 57.50375 -5.36625 57.1325 -4.75 56.75 C0.05187733 57.95221674 3.99528757 60.23086285 8.125 62.875 C8.71796875 63.24753906 9.3109375 63.62007813 9.921875 64.00390625 C11.3681343 64.91365 12.80958046 65.83103798 14.25 66.75 C8.12152261 76.75984641 -1.49515023 82.12113875 -12.61767578 85.28051758 C-26.17052689 88.26450346 -40.06208977 85.60011351 -52 79 C-61.8675284 72.62162964 -67.51301596 64.64334737 -71.75 53.75 C-74.59540227 39.42314999 -74.08980603 24.70394723 -66.10546875 12.16796875 C-59.37682522 3.00911537 -50.56220334 -3.69261232 -39.515625 -6.8984375 C-25.46431713 -8.6846207 -11.75756943 -8.56342974 0 0 Z " fill="#EF4343" transform="translate(795.75,235.25)"/>
<path d="M0 0 C6.75195667 5.6516378 10.44011839 11.80473017 13.19921875 20.08203125 C13.28854183 22.18293146 13.31681144 24.28661002 13.31274414 26.3894043 C13.31263084 28.34108772 13.31263084 28.34108772 13.31251526 30.3321991 C13.3074086 31.75271645 13.3021926 33.17323342 13.296875 34.59375 C13.29500966 36.04677787 13.29358631 37.49980636 13.29258728 38.95283508 C13.28877121 42.77509297 13.27894868 46.5973128 13.2678833 50.41955566 C13.25764962 54.32071416 13.25308546 58.22187882 13.24804688 62.12304688 C13.2373256 69.77606102 13.21973616 77.42903595 13.19921875 85.08203125 C5.93921875 85.08203125 -1.32078125 85.08203125 -8.80078125 85.08203125 C-8.81012695 83.42751953 -8.81947266 81.77300781 -8.82910156 80.06835938 C-8.86907272 73.91053675 -8.9348529 67.75320995 -9.00830078 61.59570312 C-9.03865648 58.93411514 -9.05770239 56.27313105 -9.07177734 53.61132812 C-9.0932634 49.77821482 -9.13994688 45.94609523 -9.19140625 42.11328125 C-9.19263489 40.92963989 -9.19386353 39.74599854 -9.19512939 38.52648926 C-9.3168412 31.60992674 -9.98871461 26.92389961 -13.80078125 21.08203125 C-19.00964004 16.91660995 -24.49685249 16.44401148 -31.03125 16.70703125 C-35.69006461 17.33784395 -38.09826864 19.10954206 -41.11991882 22.61035156 C-45.6338014 28.87494437 -45.53235264 34.80948902 -45.5078125 42.33203125 C-45.52293381 43.58588623 -45.53805511 44.83974121 -45.55363464 46.1315918 C-45.58917608 49.43940721 -45.60365963 52.7464075 -45.60766602 56.05438232 C-45.61704211 59.44006824 -45.65448304 62.82543633 -45.68945312 66.2109375 C-45.75223383 72.83470231 -45.78462661 79.45799526 -45.80078125 86.08203125 C-53.39078125 86.08203125 -60.98078125 86.08203125 -68.80078125 86.08203125 C-68.80078125 56.71203125 -68.80078125 27.34203125 -68.80078125 -2.91796875 C-61.21078125 -2.91796875 -53.62078125 -2.91796875 -45.80078125 -2.91796875 C-45.47078125 -0.60796875 -45.14078125 1.70203125 -44.80078125 4.08203125 C-44.25550781 3.61152344 -43.71023438 3.14101562 -43.1484375 2.65625 C-30.45299747 -7.82562613 -14.10017115 -9.65576574 0 0 Z " fill="#EF4243" transform="translate(895.80078125,232.91796875)"/>
<path d="M0 0 C1.29744141 -0.04350586 1.29744141 -0.04350586 2.62109375 -0.08789062 C12.0643723 -0.17991658 18.82756245 3.13612992 25.65625 9.53125 C34.56662009 18.76563355 34.80820209 29.20356144 34.66796875 41.41015625 C34.6623626 42.85460466 34.65809733 44.29905883 34.65510559 45.74351501 C34.64373682 49.51651188 34.61434013 53.28915364 34.58099365 57.06201172 C34.55011923 60.92345376 34.53656341 64.78495406 34.52148438 68.64648438 C34.48946114 76.20200235 34.43676031 83.75715586 34.375 91.3125 C26.785 91.3125 19.195 91.3125 11.375 91.3125 C11.3656543 89.56187256 11.35630859 87.81124512 11.34667969 86.00756836 C11.31106541 80.20392917 11.25721226 74.4006108 11.19109726 68.59725094 C11.15169686 65.08084771 11.1194725 61.56469209 11.10400391 58.0480957 C11.08587173 53.99910845 11.03588867 49.95104494 10.984375 45.90234375 C10.98314636 44.64791977 10.98191772 43.39349579 10.98065186 42.10105896 C10.86741928 35.32101291 10.54143589 30.77457236 6.375 25.3125 C1.63971122 21.54855251 -3.74128596 21.81533935 -9.55859375 21.9609375 C-14.85113235 22.56772537 -17.34025117 24.95637624 -20.875 28.6875 C-25.23513219 35.22769828 -24.96125772 41.89207864 -25.0390625 49.4921875 C-25.05842865 50.6600882 -25.0777948 51.82798889 -25.0977478 53.03128052 C-25.15737661 56.74994678 -25.20386274 60.46864428 -25.25 64.1875 C-25.28819509 66.71355493 -25.32724771 69.23959705 -25.3671875 71.765625 C-25.46306468 77.94781224 -25.54715784 84.13006044 -25.625 90.3125 C-32.885 90.3125 -40.145 90.3125 -47.625 90.3125 C-47.625 61.2725 -47.625 32.2325 -47.625 2.3125 C-40.365 2.3125 -33.105 2.3125 -25.625 2.3125 C-25.625 5.2825 -25.625 8.2525 -25.625 11.3125 C-24.965 11.3125 -24.305 11.3125 -23.625 11.3125 C-23.38652344 10.71824219 -23.14804687 10.12398437 -22.90234375 9.51171875 C-21.35398909 6.84589712 -19.77384853 5.77703543 -17.1875 4.125 C-16.01380859 3.36123047 -16.01380859 3.36123047 -14.81640625 2.58203125 C-9.9940438 -0.21167249 -5.41160043 0.05890712 0 0 Z " fill="#151549" transform="translate(527.625,227.6875)"/>
<path d="M0 0 C0.92176025 -0.01474365 1.84352051 -0.0294873 2.79321289 -0.04467773 C11.97505336 0.09185217 19.66044631 2.6235848 26.375 9.0625 C27.17808594 9.8153125 27.98117187 10.568125 28.80859375 11.34375 C33.9375 16.6891055 33.9375 16.6891055 33.9375 19.5625 C31.16866804 21.04543582 28.3971027 22.52318862 25.625 24 C24.44647461 24.63131836 24.44647461 24.63131836 23.24414062 25.27539062 C22.48681641 25.67822266 21.72949219 26.08105469 20.94921875 26.49609375 C19.90447388 27.0538147 19.90447388 27.0538147 18.83862305 27.62280273 C16.9375 28.5625 16.9375 28.5625 13.9375 29.5625 C13.545625 28.799375 13.15375 28.03625 12.75 27.25 C10.60163464 24.06449275 9.52089636 22.98092772 5.9375 21.5625 C0.93923267 20.95349863 -3.43503135 20.56382605 -7.8125 23.25 C-9.2655854 25.50008839 -9.2655854 25.50008839 -9.0625 28.125 C-7.85314436 31.07280438 -6.7092336 31.84413755 -4.0625 33.5625 C-1.92977845 34.41554373 -1.92977845 34.41554373 0.3515625 34.9921875 C1.19066162 35.22752197 2.02976074 35.46285645 2.89428711 35.70532227 C3.77479736 35.94694092 4.65530762 36.18855957 5.5625 36.4375 C18.37771542 40.12900771 27.71613861 43.69883485 34.9375 55.5625 C37.43873588 63.06620765 36.53130504 71.20300574 33.25 78.3125 C28.76317482 86.00420031 22.17511995 89.62222857 13.9375 92.5625 C2.61246248 95.50478916 -12.07868909 94.645946 -22.3125 88.875 C-28.37935981 84.92044909 -33.85244519 80.17143638 -37.0625 73.5625 C-37.0625 72.9025 -37.0625 72.2425 -37.0625 71.5625 C-27.6575 66.6125 -27.6575 66.6125 -18.0625 61.5625 C-16.2290483 63.3959517 -14.41205704 65.24629901 -12.625 67.125 C-8.35591508 71.18583687 -5.45156242 71.85473946 0.4375 71.875 C2.12359375 71.90013672 2.12359375 71.90013672 3.84375 71.92578125 C7.20876179 71.53064729 8.59123054 70.97081024 10.9375 68.5625 C11.60416667 65.5625 11.60416667 65.5625 10.9375 62.5625 C8.0967653 59.93191752 5.24352815 58.82454008 1.578125 57.6953125 C0.54429687 57.36660156 -0.48953125 57.03789062 -1.5546875 56.69921875 C-3.71010078 56.0298518 -5.86634136 55.3631425 -8.0234375 54.69921875 C-15.71263671 52.24745176 -23.18419202 49.50007972 -28.4375 43.0625 C-28.89898437 42.5159375 -29.36046875 41.969375 -29.8359375 41.40625 C-34.10857614 34.98368492 -33.72971438 28.01165298 -33.0625 20.5625 C-31.1311575 13.32285687 -25.83090817 8.30567948 -19.9375 4.015625 C-13.53122266 0.36076165 -7.2082187 0.07643348 0 0 Z " fill="#161649" transform="translate(253.0625,227.4375)"/>
<path d="M0 0 C0 7.92 0 15.84 0 24 C6.6 24 13.2 24 20 24 C20 31.26 20 38.52 20 46 C13.4 46 6.8 46 0 46 C0.02809813 51.60685482 0.07116358 57.20943514 0.15258789 62.81518555 C0.17575277 64.72102307 0.19016007 66.62698833 0.19555664 68.53295898 C0.20485741 71.27668723 0.24587071 74.01841063 0.29296875 76.76171875 C0.2890361 77.61086349 0.28510345 78.46000824 0.28105164 79.33488464 C0.38740561 83.66878851 0.60761126 85.48748552 3.32226562 89.03320312 C8.31132031 92.69766561 13.97978369 91.83120889 20 92 C20 98.93 20 105.86 20 113 C16.35335036 113.10876503 12.71000079 113.1876876 9.0625 113.25 C8.04091797 113.28351563 7.01933594 113.31703125 5.96679688 113.3515625 C-2.56777231 113.46063048 -8.19696576 111.43968235 -15.3125 106.875 C-22.7060196 98.96565345 -23.15751238 88.52169949 -23.09765625 78.2265625 C-23.0962413 77.3028183 -23.09482635 76.3790741 -23.09336853 75.42733765 C-23.08779609 72.49319138 -23.07524869 69.55912299 -23.0625 66.625 C-23.05748144 64.62890736 -23.05291915 62.63281351 -23.04882812 60.63671875 C-23.03783569 55.75778275 -23.0205901 50.87890455 -23 46 C-28.28 46 -33.56 46 -39 46 C-39 38.74 -39 31.48 -39 24 C-33.72 24 -28.44 24 -23 24 C-23 18.06 -23 12.12 -23 6 C-13.67889908 2.50458716 -13.67889908 2.50458716 -9.8125 1.3125 C-9.01457031 1.06113281 -8.21664063 0.80976563 -7.39453125 0.55078125 C-5 0 -5 0 0 0 Z " fill="#16164A" transform="translate(338,206)"/>
<path d="M0 0 C5.34534667 2.49610032 8.81358661 5.20769773 12.1015625 10.08984375 C12.6996875 10.93546875 13.2978125 11.78109375 13.9140625 12.65234375 C16.27196173 19.47784152 16.21437057 27.19476773 13.6015625 33.96484375 C10.77416738 39.42845781 6.26348559 43.48737252 0.8046875 46.25390625 C-5.35428493 48.15855957 -13.34992328 48.34068159 -19.48046875 46.1796875 C-25.62680563 42.52479119 -30.14456073 37.15579926 -32.38671875 30.3515625 C-34.12238036 22.68020315 -33.36455106 16.19667546 -29.52734375 9.3203125 C-26.90072035 5.72366511 -23.71165537 3.33380496 -19.8984375 1.08984375 C-19.28355469 0.71730469 -18.66867188 0.34476563 -18.03515625 -0.0390625 C-12.51135258 -2.29099709 -5.59366503 -1.75650128 0 0 Z " fill="#FCFCFC" transform="translate(168.8984375,250.91015625)"/>
<path d="M0 0 C4.72770548 3.26048654 8.9794645 7.99739917 11.0390625 13.40625 C12.05269364 22.47558124 11.82521861 30.94698851 6.0390625 38.40625 C0.82087819 43.53871465 -4.45022284 46.1184865 -11.7734375 46.71875 C-19.33210639 46.48750965 -25.71188859 43.89389204 -30.9609375 38.40625 C-36.65303686 31.34383042 -36.88697219 24.20878201 -35.9609375 15.40625 C-34.76165049 8.80486485 -31.1596151 4.50875549 -25.9609375 0.40625 C-18.12913057 -4.3542601 -8.09543953 -4.12131467 0 0 Z " fill="#FCFCFC" transform="translate(429.9609375,252.59375)"/>
<path d="M0 0 C4.44801928 -0.06910041 8.89415558 -0.12876017 13.34228516 -0.16479492 C14.85341727 -0.17982543 16.36450618 -0.20025564 17.87548828 -0.22631836 C20.05512187 -0.26295689 22.23417575 -0.27978338 24.4140625 -0.29296875 C25.7232666 -0.3086792 27.0324707 -0.32438965 28.38134766 -0.34057617 C33.35138924 0.1271885 36.59083689 1.81333633 40.375 5 C42.85899509 9.58583709 42.74903504 13.89907137 42 19 C39.9976035 23.004793 37.82001123 25.6587028 34 28 C30.46173745 29.17942085 27.65851274 29.11289189 23.92578125 29.09765625 C22.90003242 29.09553383 22.90003242 29.09553383 21.8535614 29.09336853 C19.67316278 29.08777876 17.49286749 29.07522822 15.3125 29.0625 C13.83268378 29.05748367 12.35286594 29.052921 10.87304688 29.04882812 C7.24862624 29.0386643 3.62442856 29.0190871 0 29 C0 19.43 0 9.86 0 0 Z " fill="#FBFBFB" transform="translate(35,267)"/>
<path d="M0 0 C4.0209236 -0.09219952 8.03913024 -0.17171538 12.06054688 -0.21972656 C13.42623368 -0.23975319 14.79183569 -0.26698332 16.15722656 -0.30175781 C18.12787102 -0.35066432 20.09915983 -0.37091347 22.0703125 -0.390625 C23.84559326 -0.4220459 23.84559326 -0.4220459 25.65673828 -0.45410156 C29.71857416 0.09760099 31.82687525 1.450219 35 4 C38.11970695 8.67956042 37.7087144 13.52554283 37 19 C35.40514157 22.45992015 33.15583472 24.42301246 29.72387695 26.13623047 C26.54642447 27.14383349 23.93667251 27.22688789 20.60546875 27.1953125 C19.52160889 27.19031738 18.43774902 27.18532227 17.32104492 27.18017578 C15.27494019 27.15286377 15.27494019 27.15286377 13.1875 27.125 C8.835625 27.08375 4.48375 27.0425 0 27 C0 18.09 0 9.18 0 0 Z " fill="#FBFBFC" transform="translate(35,217)"/>
<path d="M0 0 C4.31346297 3.23745689 7.67505058 7.3702491 9.78515625 12.33984375 C9.78515625 13.32984375 9.78515625 14.31984375 9.78515625 15.33984375 C-5.06484375 15.33984375 -19.91484375 15.33984375 -35.21484375 15.33984375 C-33.01042849 7.62439035 -30.93233998 3.57034149 -24.08984375 -0.53515625 C-16.24122717 -3.60635404 -7.50336264 -4.32945565 0 0 Z " fill="#FEF9F9" transform="translate(981.21484375,250.66015625)"/>
<path d="M0 0 C5.03280185 2.84109782 8.30043651 6.78026019 10.625 12.0625 C10.625 13.3825 10.625 14.7025 10.625 16.0625 C-3.895 16.0625 -18.415 16.0625 -33.375 16.0625 C-32.23336872 9.2127123 -30.86680428 5.60780788 -25.2421875 1.5078125 C-17.08829184 -3.13282908 -8.65936458 -3.73158804 0 0 Z " fill="#FEF9F9" transform="translate(780.375,249.9375)"/>
</svg>
