<?xml version="1.0" encoding="UTF-8"?>
<svg version="1.1" xmlns="http://www.w3.org/2000/svg" width="1050" height="350">
<path d="M0 0 C17.49 0 34.98 0 53 0 C58.58116268 22.32465073 61.18074047 46.39281721 55 69 C54.80132324 69.72687012 54.60264648 70.45374023 54.39794922 71.20263672 C46.50663243 98.96706741 29.99811135 120.11976829 6 136 C5.16210938 136.6084375 4.32421875 137.216875 3.4609375 137.84375 C0.12544443 139.4109023 -1.49573575 139.0672886 -5 138 C-13.51092192 133.16130328 -20.95242152 126.74380354 -28 120 C-28.68578125 119.37738281 -29.3715625 118.75476563 -30.078125 118.11328125 C-44.59744788 104.47998004 -53.71194519 85.23439971 -58 66 C-58 64.35 -58 62.7 -58 61 C-39.52 61 -21.04 61 -2 61 C-2 86.41 -2 111.82 -2 138 C-1.34 138 -0.68 138 0 138 C0 92.46 0 46.92 0 0 Z M20.375 17.5 C19.92125 17.995 19.4675 18.49 19 19 C18.67 18.34 18.34 17.68 18 17 C15.14340822 16.76585313 12.79853264 16.58296376 10 17 C7.54208041 18.81688966 7.54208041 18.81688966 7 22 C7.83631473 31.03931667 14.94447375 36.94447375 21 43 C20.625 45.625 20.625 45.625 20 48 C20.99 48 21.98 48 23 48 C23 47.34 23 46.68 23 46 C23.99 46.66 24.98 47.32 26 48 C26.33792536 50.61677492 26.48886089 53.00936392 26.51171875 55.6328125 C26.53864555 56.76056595 26.53864555 56.76056595 26.56611633 57.91110229 C26.62035781 60.31567756 26.65415792 62.72005285 26.6875 65.125 C26.72066102 66.75393417 26.75514955 68.3828419 26.79101562 70.01171875 C26.87609162 74.00766846 26.94283578 78.00355746 27 82 C26.34 82 25.68 82 25 82 C25.01160156 81.41734375 25.02320312 80.8346875 25.03515625 80.234375 C25.10993846 73.43987745 24.65055041 66.76107745 24 60 C23.67 60 23.34 60 23 60 C22.95875 61.051875 22.9175 62.10375 22.875 63.1875 C21.76662712 68.01683899 19.71877569 68.90102026 16 72 C14.67973586 75.48694391 14.67973586 75.48694391 15 79 C17.0080387 81.93482579 18.32464216 82.8158115 21.75 83.75 C22.4925 83.8325 23.235 83.915 24 84 C24 87.3 24 90.6 24 94 C22.515 94.495 22.515 94.495 21 95 C21.33 96.32 21.66 97.64 22 99 C22.66 99 23.32 99 24 99 C23.34 100.98 22.68 102.96 22 105 C23.65 105.33 25.3 105.66 27 106 C29.16617415 102.75073878 29.21335669 102.4014758 28.625 98.8125 C28.315625 96.9253125 28.315625 96.9253125 28 95 C28.78375 94.71125 29.5675 94.4225 30.375 94.125 C33.09671632 93.15087746 33.09671632 93.15087746 35 91 C35.06546898 88.48952515 35.06546898 88.48952515 34 86 C33.17242187 85.59265625 32.34484375 85.1853125 31.4921875 84.765625 C29 83 29 83 28.23046875 79.85546875 C28.11631017 70.11047748 28.11631017 70.11047748 30.765625 66.78125 C32.78309435 65.30080487 34.76233905 64.1117343 37 63 C38.30814853 61.87901861 38.30814853 61.87901861 38.5625 59.0625 C38.5625 54.00834566 34.98851234 51.06809889 31.84765625 47.4453125 C29.36448714 44.15891955 29 42.05024565 29 38 C28.34 39.32 27.68 40.64 27 42 C24.77824719 40.24976105 24.05524357 39.39771408 23.65942383 36.5480957 C23.67513428 35.60023193 23.69084473 34.65236816 23.70703125 33.67578125 C23.71669922 32.64775391 23.72636719 31.61972656 23.73632812 30.56054688 C23.76146484 29.48869141 23.78660156 28.41683594 23.8125 27.3125 C23.83280273 25.68731445 23.83280273 25.68731445 23.85351562 24.02929688 C23.88889357 21.35236595 23.93825811 18.67643162 24 16 C21.87635519 15.77390663 21.87635519 15.77390663 20.375 17.5 Z M28 19 C28 21.64 28 24.28 28 27 C28.99 26.01 29.98 25.02 31 24 C30.34 24 29.68 24 29 24 C29 22.35 29 20.7 29 19 C28.67 19 28.34 19 28 19 Z M31 23 C31.99 24.485 31.99 24.485 33 26 C33 25.01 33 24.02 33 23 C32.34 23 31.68 23 31 23 Z M33 27 C34 29 34 29 34 29 Z M30 31 C31 33 31 33 31 33 Z M29 34 C30 37 30 37 30 37 Z M21 51 C22 54 22 54 22 54 Z M22 54 C22 55.65 22 57.3 22 59 C22.33 59 22.66 59 23 59 C23 57.35 23 55.7 23 54 C22.67 54 22.34 54 22 54 Z M-38 72 C-38 78.93 -38 85.86 -38 93 C-35.69 93 -33.38 93 -31 93 C-31 97.29 -31 101.58 -31 106 C-23.74 106 -16.48 106 -9 106 C-9 98.74 -9 91.48 -9 84 C-11.31 84 -13.62 84 -16 84 C-16 80.04 -16 76.08 -16 72 C-23.26 72 -30.52 72 -38 72 Z " fill="#912124" transform="translate(65,101)"/>
<path d="M0 0 C17.49 0 34.98 0 53 0 C53 19.47 53 38.94 53 59 C34.52 59 16.04 59 -3 59 C-3.33 59.66 -3.66 60.32 -4 61 C-5.11039493 54.07004527 -5.22146092 47.24873371 -5.24023438 40.25170898 C-5.24983701 38.09903754 -5.28087185 35.94736592 -5.3125 33.79492188 C-5.40111299 22.16513375 -4.35907725 10.89769313 0 0 Z M23 5 C22.25042843 8.47147842 22.25042843 8.47147842 22 12 C21.34 12 20.68 12 20 12 C20 12.66 20 13.32 20 14 C20.66 14.33 21.32 14.66 22 15 C22.33 15.99 22.66 16.98 23 18 C20.525 17.01 20.525 17.01 18 16 C19.36323743 18.0399719 19.36323743 18.0399719 21 20 C21.66 20 22.32 20 23 20 C23 20.99 23 21.98 23 23 C21.02 22.34 19.04 21.68 17 21 C17.33 21.99 17.66 22.98 18 24 C19.65 24.33 21.3 24.66 23 25 C23 25.99 23 26.98 23 28 C21.02 27.34 19.04 26.68 17 26 C17.71563266 28.0162233 17.71563266 28.0162233 19 30 C21.05000871 30.80528889 21.05000871 30.80528889 23 31 C23 31.99 23 32.98 23 34 C21.02 33.34 19.04 32.68 17 32 C18.28062485 33.7074998 19.61767557 35.37373596 21 37 C21.66 37 22.32 37 23 37 C23 37.66 23 38.32 23 39 C19.535 37.515 19.535 37.515 16 36 C17.0975223 38.99324263 17.67682892 39.84610901 20.625 41.25 C21.40875 41.4975 22.1925 41.745 23 42 C23 42.66 23 43.32 23 44 C21.68 43.67 20.36 43.34 19 43 C19 43.66 19 44.32 19 45 C20.32 45.33 21.64 45.66 23 46 C22.67 47.32 22.34 48.64 22 50 C21.34 49.34 20.68 48.68 20 48 C20 48.66 20 49.32 20 50 C19.01 50.495 19.01 50.495 18 51 C19.65 51.33 21.3 51.66 23 52 C23.33 52.99 23.66 53.98 24 55 C24 54.01 24 53.02 24 52 C25.32 52.33 26.64 52.66 28 53 C28.33 52.01 28.66 51.02 29 50 C28.01 49.67 27.02 49.34 26 49 C25.505 49.495 25.505 49.495 25 50 C24.67 48.68 24.34 47.36 24 46 C24.639375 45.87625 25.27875 45.7525 25.9375 45.625 C26.618125 45.41875 27.29875 45.2125 28 45 C28.33 44.34 28.66 43.68 29 43 C26.525 43.495 26.525 43.495 24 44 C24 43.34 24 42.68 24 42 C24.763125 41.938125 25.52625 41.87625 26.3125 41.8125 C29.23051809 41.23064738 29.23051809 41.23064738 30.8125 38.4375 C31.204375 37.633125 31.59625 36.82875 32 36 C27.92035719 37.30155006 27.92035719 37.30155006 24 39 C24 38.34 24 37.68 24 37 C24.804375 36.731875 25.60875 36.46375 26.4375 36.1875 C27.283125 35.795625 28.12875 35.40375 29 35 C29.33 34.01 29.66 33.02 30 32 C28.02 32.66 26.04 33.32 24 34 C25.2375 32.8553125 25.2375 32.8553125 26.5 31.6875 C29.34055197 29.24565858 29.34055197 29.24565858 29 26 C27.35 26.66 25.7 27.32 24 28 C25.93254772 25.9754262 27.63158688 24.57894208 30 23 C30 22.34 30 21.68 30 21 C28.02 21.66 26.04 22.32 24 23 C25.65 21.02 27.3 19.04 29 17 C26.0745356 16.7763932 26.0745356 16.7763932 24 18 C24.9977758 15.00667261 25.7522025 14.05233685 28 12 C26.68 12.33 25.36 12.66 24 13 C24.33 12.34 24.66 11.68 25 11 C25.039992 9.00039988 25.04346799 6.99952758 25 5 C24.34 5 23.68 5 23 5 Z M43 34 C42.67 35.32 42.34 36.64 42 38 C42.99 37.34 43.98 36.68 45 36 C45 35.34 45 34.68 45 34 C44.34 34 43.68 34 43 34 Z M4 35 C4 35.99 4 36.98 4 38 C4.66 38 5.32 38 6 38 C5.67 37.01 5.34 36.02 5 35 C4.67 35 4.34 35 4 35 Z M8 36 C7.71125 36.78375 7.4225 37.5675 7.125 38.375 C6 41 6 41 4 43 C5.65 43 7.3 43 9 43 C9.67958603 40.60280568 9.67958603 40.60280568 10 38 C9.34 37.34 8.68 36.68 8 36 Z M38 38 C38.33 39.32 38.66 40.64 39 42 C40.65 42.33 42.3 42.66 44 43 C42.71937515 41.2925002 41.38232443 39.62626404 40 38 C39.34 38 38.68 38 38 38 Z M35 40 C35 42.31 35 44.62 35 47 C37.475 47.495 37.475 47.495 40 48 C39.34 46.68 38.68 45.36 38 44 C37.34 44 36.68 44 36 44 C35.67 42.68 35.34 41.36 35 40 Z M12 41 C12 41.99 12 42.98 12 44 C11.01 44.495 11.01 44.495 10 45 C9.34 45.99 8.68 46.98 8 48 C9.65 47.67 11.3 47.34 13 47 C13 45.02 13 43.04 13 41 C12.67 41 12.34 41 12 41 Z M31 44 C30.32198966 46.90073181 30.32198966 46.90073181 30 50 C30.66 50.66 31.32 51.32 32 52 C32.99 51.67 33.98 51.34 35 51 C34.34 50.34 33.68 49.68 33 49 C32.375 46.375 32.375 46.375 32 44 C31.67 44 31.34 44 31 44 Z M16 45 C14.515 48.465 14.515 48.465 13 52 C13.99 52 14.98 52 16 52 C16 51.34 16 50.68 16 50 C16.66 49.67 17.32 49.34 18 49 C17.34 47.68 16.68 46.36 16 45 Z " fill="#962C2E" transform="translate(10,101)"/>
<path d="M0 0 C0.33 23.76 0.66 47.52 1 72 C2.65 72.66 4.3 73.32 6 74 C6 74.99 6 75.98 6 77 C0.39 77.99 -5.22 78.98 -11 80 C-11.33 78.68 -11.66 77.36 -12 76 C-12.9075 76.474375 -13.815 76.94875 -14.75 77.4375 C-21.10410291 80.49235717 -26.79766491 80.82321266 -33.625 78.8125 C-37.73406241 77.33100131 -40.18239488 75.39770029 -43 72 C-43.8353125 71.0409375 -43.8353125 71.0409375 -44.6875 70.0625 C-48.96847864 63.33524785 -48.68498866 55.67863828 -48 48 C-46.30950737 41.1649271 -43.19379442 34.60333346 -37.04296875 30.78515625 C-31.5700159 27.93190996 -27.13935428 26.85962985 -20.9375 26.875 C-19.89464844 26.87242187 -18.85179687 26.86984375 -17.77734375 26.8671875 C-15 27 -15 27 -12 28 C-12.14111883 25.24968413 -12.28771165 22.49984582 -12.4375 19.75 C-12.47681641 18.97269531 -12.51613281 18.19539063 -12.55664062 17.39453125 C-12.59853516 16.64042969 -12.64042969 15.88632813 -12.68359375 15.109375 C-12.73858032 14.07248535 -12.73858032 14.07248535 -12.79467773 13.01464844 C-13.00675524 10.93371671 -13.44508677 9.01427578 -14 7 C-16.475 6.505 -16.475 6.505 -19 6 C-19 5.01 -19 4.02 -19 3 C-18.33613281 2.86722656 -17.67226563 2.73445313 -16.98828125 2.59765625 C-15.66376953 2.33275391 -15.66376953 2.33275391 -14.3125 2.0625 C-12.54166667 1.70833333 -10.77083333 1.35416667 -9 1 C-8.14792969 0.81308594 -7.29585937 0.62617187 -6.41796875 0.43359375 C-4 0 -4 0 0 0 Z M-32 38 C-34.61902637 43.0442823 -35.52254344 47.28848286 -35.4375 53 C-35.43065186 53.70406982 -35.42380371 54.40813965 -35.41674805 55.13354492 C-35.2455657 60.64023095 -34.58068475 63.83866367 -31 68 C-27.23481893 71.13765089 -22.85317885 72.18429793 -18 72 C-15.99247151 71.35635894 -13.99152869 70.69156194 -12 70 C-11.87640057 65.35532361 -11.78566601 60.71160374 -11.7253418 56.06567383 C-11.7001967 54.48542611 -11.66607526 52.90529471 -11.62280273 51.32543945 C-11.56214292 49.05390768 -11.53379322 46.78391256 -11.51171875 44.51171875 C-11.48591232 43.80536789 -11.4601059 43.09901703 -11.43351746 42.3712616 C-11.37664167 40.12924683 -11.37664167 40.12924683 -12 37 C-15.85205323 33.86956737 -18.97381677 33.46411664 -23.78515625 33.65625 C-27.38475441 34.21491779 -29.35285535 35.54193711 -32 38 Z " fill="#972D30" transform="translate(525,118)"/>
<path d="M0 0 C3.63 0 7.26 0 11 0 C15.55255747 10.4846778 19.30008764 21.19054647 23 32 C25.91687623 24.84913855 28.63117082 17.63982613 31.25 10.375 C31.61351562 9.37082031 31.97703125 8.36664063 32.3515625 7.33203125 C33.23586636 4.88856005 34.11814787 2.4443571 35 0 C38.63 0 42.26 0 46 0 C46 17.16 46 34.32 46 52 C43.03 52 40.06 52 37 52 C36.67 41.77 36.34 31.54 36 21 C32.7 29.91 29.4 38.82 26 48 C24.35 48 22.7 48 21 48 C18.12045407 41.74237965 15.59168453 35.41382879 13.25 28.9375 C12.1775 25.988125 11.105 23.03875 10 20 C9.67 30.56 9.34 41.12 9 52 C6.03 52 3.06 52 0 52 C0 34.84 0 17.68 0 0 Z M37 16 C38 18 38 18 38 18 Z " fill="#626568" transform="translate(609,144)"/>
<path d="M0 0 C3 1 3 1 4 3 C5.134375 2.505 6.26875 2.01 7.4375 1.5 C13.52250891 -0.75768882 18.63639524 -0.73620476 24.8125 1.1875 C29.4034501 3.79804025 31.3940641 6.21542586 33.09057617 11.21191406 C34.01788463 15.0744961 34.23956625 18.39437093 34.23828125 22.359375 C34.25367941 23.73568719 34.2699814 25.11198951 34.28710938 26.48828125 C34.30363935 28.63026948 34.31242956 30.77152654 34.30541992 32.91357422 C34.30280711 35.0004985 34.33082623 37.0852422 34.36328125 39.171875 C34.36626221 40.4103418 34.36924316 41.64880859 34.37231445 42.92480469 C34.67100317 46.2071158 34.67100317 46.2071158 37.53979492 47.73925781 C38.3516626 48.15530273 39.16353027 48.57134766 40 49 C40 49.99 40 50.98 40 52 C31.75 52 23.5 52 15 52 C15 51.01 15 50.02 15 49 C15.804375 48.525625 16.60875 48.05125 17.4375 47.5625 C20.09385574 46.30646037 20.09385574 46.30646037 20.6496582 44.23950195 C21.3767127 39.59192644 21.18469807 34.88073859 21.1875 30.1875 C21.20586914 28.58551758 21.20586914 28.58551758 21.22460938 26.95117188 C21.23517681 21.255324 21.05840913 16.34153481 19 11 C15.67736141 8.06074279 11.18811673 8.80056587 7 9 C6.01 9.33 5.02 9.66 4 10 C3.87644273 15.07193078 3.78568385 20.14298696 3.7253418 25.21606445 C3.70018995 26.94180559 3.66606381 28.66744012 3.62280273 30.39282227 C3.56217567 32.87282581 3.53379899 35.35142222 3.51171875 37.83203125 C3.48591232 38.60400345 3.4601059 39.37597565 3.43351746 40.17134094 C3.37606047 42.61003571 3.37606047 42.61003571 4 46 C6.43122914 47.86586129 6.43122914 47.86586129 9 49 C9 49.99 9 50.98 9 52 C0.75 52 -7.5 52 -16 52 C-16 51.01 -16 50.02 -16 49 C-14.34467377 47.98133771 -12.67739862 46.98189187 -11 46 C-9.76819866 42.30459598 -9.87587888 38.89696622 -9.90234375 35.05078125 C-9.90446617 33.89185616 -9.90446617 33.89185616 -9.90663147 32.70951843 C-9.91222534 30.24380611 -9.92477667 27.77818485 -9.9375 25.3125 C-9.94251579 23.63997527 -9.94707856 21.96744912 -9.95117188 20.29492188 C-9.96219276 16.19657954 -9.97945316 12.09830521 -10 8 C-12.97 7.505 -12.97 7.505 -16 7 C-16 5.68 -16 4.36 -16 3 C-14.51886719 2.80083984 -14.51886719 2.80083984 -13.0078125 2.59765625 C-11.72648437 2.42105469 -10.44515625 2.24445313 -9.125 2.0625 C-7.21074219 1.80146484 -7.21074219 1.80146484 -5.2578125 1.53515625 C-2.12440546 1.18566773 -2.12440546 1.18566773 0 0 Z " fill="#993134" transform="translate(305,145)"/>
<path d="M0 0 C0 4.95 0 9.9 0 15 C-1.32 15 -2.64 15 -4 15 C-4.37125 13.88625 -4.7425 12.7725 -5.125 11.625 C-6.40624703 8.66136786 -6.74968599 8.13084596 -9.75 6.5625 C-15.52210411 5.56348198 -20.64185326 5.38323066 -26 8 C-27.8222061 10.85214868 -28.00779188 12.62598961 -27.9375 16 C-25.89336626 22.54122797 -19.52923772 25.76787459 -14.0625 29.3125 C-1.28563169 37.9255361 -1.28563169 37.9255361 0.6640625 45.62109375 C1.54263821 51.83141812 1.06341539 57.45454732 -2 63 C-6.98383822 68.33154786 -13.22740907 71.06778142 -20.47265625 71.36328125 C-22.00269725 71.36197464 -23.53280231 71.34493634 -25.0625 71.3125 C-26.2081543 71.31733398 -26.2081543 71.31733398 -27.37695312 71.32226562 C-32.53387661 71.27374025 -35.72589064 70.50688839 -41 69 C-41 63.72 -41 58.44 -41 53 C-39.68 53.33 -38.36 53.66 -37 54 C-36.690625 54.94875 -36.38125 55.8975 -36.0625 56.875 C-35.28885993 60.10027988 -35.28885993 60.10027988 -32.8125 61.67578125 C-29.60470812 63.1861166 -27.46564922 63.37048475 -23.9375 63.3125 C-22.91527344 63.30863281 -21.89304688 63.30476563 -20.83984375 63.30078125 C-18.02882305 63.00305278 -16.36646851 62.50544221 -14 61 C-11.45405236 57.56297069 -11.63600536 54.14953888 -12 50 C-14.25850456 44.77023088 -18.25677548 42.47064172 -22.875 39.5 C-36.8818152 30.39174312 -36.8818152 30.39174312 -39.6875 23.25 C-40.69296242 16.01067059 -40.11282765 11.09458619 -36 5 C-28.38708129 -3.28464683 -9.95408972 -4.97704486 0 0 Z " fill="#993033" transform="translate(197,126)"/>
<path d="M0 0 C5.85401007 4.96625909 8.48568168 11.12111926 9.28125 18.66796875 C9.57064105 27.2170626 8.22074894 34.72904775 2.6875 41.4375 C-2.77801133 47.14464446 -8.53483 48.94246289 -16.25 49.25 C-23.61748868 49.12761647 -30.09433001 46.96543804 -35.4921875 41.84375 C-40.67706972 35.50368677 -41.67058445 28.23431288 -41.37890625 20.24609375 C-40.45534305 12.33391827 -37.96237513 5.70582369 -31.8984375 0.37109375 C-22.79297245 -6.20507545 -9.29209148 -6.34490287 0 0 Z M-25 7 C-27.58615519 12.0595966 -28.49341027 16.22369092 -28.375 21.9375 C-28.36557373 22.6397168 -28.35614746 23.34193359 -28.34643555 24.06542969 C-28.15182107 30.74279963 -27.30081419 35.37049807 -22.8125 40.5 C-19.07442267 42.49364124 -16.14909004 42.8163524 -12 42 C-7.39092603 39.43940335 -5.53825345 35.90428533 -4 31 C-3.71929522 28.25074435 -3.56835604 25.79581682 -3.625 23.0625 C-3.63442627 22.3602832 -3.64385254 21.65806641 -3.65356445 20.93457031 C-3.84817893 14.25720037 -4.69918581 9.62950193 -9.1875 4.5 C-15.08863523 1.35272788 -20.43814897 1.91679457 -25 7 Z " fill="#982F32" transform="translate(424,149)"/>
<path d="M0 0 C3.3 0 6.6 0 10 0 C12.35511626 2.78614047 13.49651491 4.76338916 15 8 C16.17591737 10.16044592 17.36017321 12.31636511 18.55078125 14.46875 C19.80794951 16.8107519 21.0612293 19.15484189 22.3125 21.5 C24.519375 25.625 26.72625 29.75 29 34 C29.33 22.78 29.66 11.56 30 0 C32.97 0 35.94 0 39 0 C39 17.16 39 34.32 39 52 C35.7 52 32.4 52 29 52 C26.65831538 49.20486778 25.49690004 47.22930907 24 44 C22.90929286 42.00847959 21.80973471 40.02179056 20.703125 38.0390625 C19.54942135 35.90247693 18.39842585 33.76442704 17.25 31.625 C16.66089844 30.53316406 16.07179688 29.44132812 15.46484375 28.31640625 C11.23028274 20.46056548 11.23028274 20.46056548 10 18 C10 29.22 10 40.44 10 52 C6.7 52 3.4 52 0 52 C0 34.84 0 17.68 0 0 Z " fill="#626468" transform="translate(929,144)"/>
<path d="M0 0 C26.53846154 0 26.53846154 0 32.8125 5.4375 C33.534375 6.283125 34.25625 7.12875 35 8 C35.556875 8.61875 36.11375 9.2375 36.6875 9.875 C41.32014397 17.37547119 41.11528367 27.30961104 39.46484375 35.73046875 C38.10331376 40.17218133 36.45685958 43.8090527 33 47 C23 52 23 52 0 52 C0 34.84 0 17.68 0 0 Z M11 8 C11 19.88 11 31.76 11 44 C19.63833678 44.162229 19.63833678 44.162229 26 40 C30.02591224 33.55854041 30.98063326 27.0610649 29.5390625 19.62109375 C28.34630976 15.36226486 27.47727806 13.39773172 24 10.5 C18.94162794 7.97081397 17.14967321 8 11 8 Z " fill="#67696D" transform="translate(736,144)"/>
<path d="M0 0 C3.12240623 2.34180468 4.60413076 4.45171146 6.5 7.875 C6.90262944 10.74706602 7.10458012 13.25028441 7.109375 16.1171875 C7.12591125 16.88555939 7.14244751 17.65393127 7.15948486 18.44558716 C7.20775935 20.88047439 7.22928871 23.31473811 7.25 25.75 C7.27817708 27.40888519 7.30810694 29.06774159 7.33984375 30.7265625 C7.41351198 34.77599027 7.46321134 38.82507609 7.5 42.875 C9.975 42.38 9.975 42.38 12.5 41.875 C13.16 42.865 13.82 43.855 14.5 44.875 C11.18906958 48.35147694 8.37976723 51.2947785 3.375 51.4375 C-0.41074415 50.88795649 -2.47164256 50.14626808 -5.5 47.875 C-6.20125 48.36226562 -6.9025 48.84953125 -7.625 49.3515625 C-10.87322816 51.07277035 -12.85156196 51.27792172 -16.5 51.25 C-17.510625 51.25773437 -18.52125 51.26546875 -19.5625 51.2734375 C-23.78926 50.70012697 -26.45966 49.06395999 -29.25 45.875 C-31.73855746 41.89330806 -31.81198396 38.47676347 -31.5 33.875 C-29.72374649 29.10716163 -27.65196732 26.74052 -23.5 23.875 C-20.62109489 22.60552554 -17.67503459 21.60665428 -14.6875 20.625 C-13.89923828 20.356875 -13.11097656 20.08875 -12.29882812 19.8125 C-10.3689667 19.15751673 -8.43488703 18.51498468 -6.5 17.875 C-6.18812725 13.25443679 -6.18812725 13.25443679 -7.5625 9 C-10.56015591 7.2594256 -13.05536591 6.99378049 -16.5 6.875 C-19.42346557 8.23928393 -21.22750909 9.60250909 -23.5 11.875 C-25.625 11.5 -25.625 11.5 -27.5 10.875 C-25.54725045 5.23372352 -23.94132532 2.82238455 -18.5 -0.125 C-12.59160349 -2.0944655 -5.89700427 -1.89546566 0 0 Z M-18.5625 31.6875 C-19.98020062 34.99546812 -19.32589543 37.44435745 -18.5 40.875 C-16.72033317 43.07166303 -16.72033317 43.07166303 -14.40625 43.10546875 C-13.6121875 43.09128906 -12.818125 43.07710937 -12 43.0625 C-10.80890625 43.05283203 -10.80890625 43.05283203 -9.59375 43.04296875 C-7.44163609 43.00175836 -7.44163609 43.00175836 -5.5 41.875 C-5.5 36.595 -5.5 31.315 -5.5 25.875 C-10.5277813 25.875 -14.82750641 28.40523291 -18.5625 31.6875 Z " fill="#972D30" transform="translate(271.5,146.125)"/>
<path d="M0 0 C0.886875 0.495 1.77375 0.99 2.6875 1.5 C2.18640042 5.88462134 0.70454885 8.3000997 -2.3125 11.5 C-2.9725 11.5 -3.6325 11.5 -4.3125 11.5 C-4.9003125 10.2934375 -4.9003125 10.2934375 -5.5 9.0625 C-7.15592261 6.14231889 -7.15592261 6.14231889 -10.8125 5.5625 C-14.42788937 5.1656442 -14.42788937 5.1656442 -17.3125 7.5 C-18.77750817 11.18445169 -18.64877379 15.32627333 -18.875 19.25 C-18.91818359 19.94738281 -18.96136719 20.64476562 -19.00585938 21.36328125 C-19.11139596 23.07531922 -19.2123991 24.78763561 -19.3125 26.5 C-15.6825 26.5 -12.0525 26.5 -8.3125 26.5 C-8.3125 28.81 -8.3125 31.12 -8.3125 33.5 C-11.9425 33.5 -15.5725 33.5 -19.3125 33.5 C-18.8175 52.805 -18.8175 52.805 -18.3125 72.5 C-15.6725 72.83 -13.0325 73.16 -10.3125 73.5 C-10.3125 74.82 -10.3125 76.14 -10.3125 77.5 C-19.5525 77.5 -28.7925 77.5 -38.3125 77.5 C-38.3125 76.51 -38.3125 75.52 -38.3125 74.5 C-37.508125 74.21125 -36.70375 73.9225 -35.875 73.625 C-33.1798532 72.76737432 -33.1798532 72.76737432 -32.3125 70.5 C-32.15558093 67.73068632 -32.05406866 64.98265893 -31.99609375 62.2109375 C-31.97531265 61.39251373 -31.95453156 60.57408997 -31.93312073 59.73086548 C-31.86765188 57.11233034 -31.80875274 54.49369361 -31.75 51.875 C-31.70681224 50.10155193 -31.66319786 48.32811419 -31.61914062 46.5546875 C-31.51197324 42.20322954 -31.41069831 37.85166923 -31.3125 33.5 C-33.2925 33.5 -35.2725 33.5 -37.3125 33.5 C-37.3125 32.18 -37.3125 30.86 -37.3125 29.5 C-35.6625 28.84 -34.0125 28.18 -32.3125 27.5 C-32.21453125 26.4378125 -32.1165625 25.375625 -32.015625 24.28125 C-30.52107547 9.57905346 -30.52107547 9.57905346 -26.3125 3.5 C-19.00867139 -2.31325134 -8.74032699 -3.80482407 0 0 Z " fill="#982E31" transform="translate(388.3125,119.5)"/>
<path d="M0 0 C10.56 0 21.12 0 32 0 C32 2.64 32 5.28 32 8 C24.74 8 17.48 8 10 8 C10 12.29 10 16.58 10 21 C16.27 21 22.54 21 29 21 C29 23.64 29 26.28 29 29 C22.73 29 16.46 29 10 29 C10 33.95 10 38.9 10 44 C17.59 44 25.18 44 33 44 C33 46.64 33 49.28 33 52 C22.11 52 11.22 52 0 52 C0 34.84 0 17.68 0 0 Z " fill="#5F6165" transform="translate(681,144)"/>
<path d="M0 0 C10.56 0 21.12 0 32 0 C32 2.64 32 5.28 32 8 C24.74 8 17.48 8 10 8 C10 12.29 10 16.58 10 21 C15.94 21 21.88 21 28 21 C28 23.64 28 26.28 28 29 C22.06 29 16.12 29 10 29 C10 33.95 10 38.9 10 44 C17.26 44 24.52 44 32 44 C32 46.64 32 49.28 32 52 C21.44 52 10.88 52 0 52 C0 34.84 0 17.68 0 0 Z " fill="#5C5F63" transform="translate(994,144)"/>
<path d="M0 0 C2.31 0 4.62 0 7 0 C7 44.55 7 89.1 7 135 C4.69 135 2.38 135 0 135 C0 90.45 0 45.9 0 0 Z " fill="#CECECE" transform="translate(567,101)"/>
<path d="M0 0 C3.8304791 2.21908326 3.8304791 2.21908326 5.44140625 4.01953125 C5.44140625 8.28779998 5.06527112 8.95835557 2.44140625 12.01953125 C0.44140625 11.01953125 -1.55859375 10.01953125 -3.55859375 9.01953125 C-8.37607701 8.61255329 -13.36678525 8.35201675 -17.55859375 11.01953125 C-18.88340921 13.41482794 -18.88340921 13.41482794 -19.55859375 16.01953125 C-19.88859375 17.00953125 -20.21859375 17.99953125 -20.55859375 19.01953125 C-21.50931964 30.78002581 -21.50931964 30.78002581 -16.55859375 41.01953125 C-12.31692795 43.84730845 -8.54143839 43.68391053 -3.55859375 43.01953125 C-1.14810237 41.93031118 0.39515701 40.7426885 2.44140625 39.01953125 C7.38116529 43.35688065 7.38116529 43.35688065 7.62890625 46.08203125 C5.31358103 49.85966713 1.5368407 51.65438643 -2.55859375 53.01953125 C-10.24962018 53.66132689 -17.22961969 53.87525244 -23.55859375 49.01953125 C-29.86244453 42.71568047 -32.50649261 35.46744779 -32.74609375 26.70703125 C-32.62657224 18.69909038 -30.60868756 11.21427126 -24.91796875 5.3203125 C-17.89831475 -0.98211598 -9.16695973 -3.51283495 0 0 Z " fill="#66696C" transform="translate(864.55859375,143.98046875)"/>
<path d="M0 0 C0.99 0 1.98 0 3 0 C3 3.63 3 7.26 3 11 C8.61 11 14.22 11 20 11 C20 13.31 20 15.62 20 18 C14.39 18 8.78 18 3 18 C3.14150444 22.16685429 3.28805661 26.33342913 3.4375 30.5 C3.47681641 31.67304688 3.51613281 32.84609375 3.55664062 34.0546875 C3.677768 37.37171412 3.82744561 40.68527739 4 44 C4.05824951 45.24910156 4.05824951 45.24910156 4.11767578 46.5234375 C4.36480823 49.6705936 4.64844424 51.5906434 6.734375 54.01953125 C9.53941593 55.23343689 11.23994211 55.12316627 14.25 54.6875 C15.14203125 54.56761719 16.0340625 54.44773438 16.953125 54.32421875 C17.62859375 54.21722656 18.3040625 54.11023438 19 54 C19.495 55.98 19.495 55.98 20 58 C13.43705927 62.32874814 7.99747215 63.72085563 0.1875 62.3125 C-3.25454337 60.89518803 -4.84949111 60.02664215 -7 57 C-9.6491478 49.32595618 -9.22473901 41.51299477 -9.125 33.5 C-9.11495069 32.09115219 -9.10582829 30.68229745 -9.09765625 29.2734375 C-9.07419969 25.8487795 -9.04137384 22.42448061 -9 19 C-10.98 18.67 -12.96 18.34 -15 18 C-15 17.01 -15 16.02 -15 15 C-13.96875 14.484375 -12.9375 13.96875 -11.875 13.4375 C-6.35737481 10.29256556 -2.6681907 5.71218291 0 0 Z " fill="#972E30" transform="translate(216,135)"/>
<path d="M0 0 C0 0.99 0 1.98 0 3 C0.763125 2.505 1.52625 2.01 2.3125 1.5 C7.20626411 -0.49068371 11.76881893 -0.63234057 17 0 C17.99 0.66 18.98 1.32 20 2 C19.56179109 6.55737263 19.14958831 9.57653445 16 13 C14.68 12.67 13.36 12.34 12 12 C12 11.34 12 10.68 12 10 C6.555 9.505 6.555 9.505 1 9 C1.495 26.82 1.495 26.82 2 45 C4.64 45.99 7.28 46.98 10 48 C9.67 48.99 9.34 49.98 9 51 C0.09 51 -8.82 51 -18 51 C-18 49.68 -18 48.36 -18 47 C-17.195625 46.773125 -16.39125 46.54625 -15.5625 46.3125 C-14.716875 45.879375 -13.87125 45.44625 -13 45 C-11.70885043 40.85376643 -11.87044274 36.59499872 -11.90234375 32.29296875 C-11.90446617 31.20487663 -11.90446617 31.20487663 -11.90663147 30.09480286 C-11.91220069 27.7923255 -11.92474739 25.48994765 -11.9375 23.1875 C-11.94251898 21.62044412 -11.94708119 20.0533867 -11.95117188 18.48632812 C-11.96216002 14.65751411 -11.97940327 10.82877389 -12 7 C-14.97 6.505 -14.97 6.505 -18 6 C-18 4.68 -18 3.36 -18 2 C-15.7505194 1.66317938 -13.50039296 1.33066999 -11.25 1 C-9.99703125 0.814375 -8.7440625 0.62875 -7.453125 0.4375 C-4 0 -4 0 0 0 Z " fill="#993234" transform="translate(455,146)"/>
<path d="M0 0 C3.3 0 6.6 0 10 0 C10 17.16 10 34.32 10 52 C6.7 52 3.4 52 0 52 C0 34.84 0 17.68 0 0 Z " fill="#626568" transform="translate(893,144)"/>
<path d="M0 0 C3.3 0 6.6 0 10 0 C10 17.16 10 34.32 10 52 C6.7 52 3.4 52 0 52 C0 34.84 0 17.68 0 0 Z " fill="#636669" transform="translate(799,144)"/>
<path d="M0 0 C2.31 0.33 4.62 0.66 7 1 C7.33 2.32 7.66 3.64 8 5 C8.99 5 9.98 5 11 5 C10.52556358 9.11178233 9.99930753 12.37625511 8 16 C6.6009852 19.91724145 6.93154223 23.89253353 7 28 C4.20911662 26.3198064 2.00356385 24.5840126 0 22 C-0.86420006 18.17355884 -0.6663693 14.52332329 -0.4375 10.625 C-0.40591797 9.60277344 -0.37433594 8.58054687 -0.34179688 7.52734375 C-0.25962544 5.01524566 -0.14484348 2.50913466 0 0 Z M5 2 C5 4.64 5 7.28 5 10 C5.99 9.01 6.98 8.02 8 7 C7.34 7 6.68 7 6 7 C6 5.35 6 3.7 6 2 C5.67 2 5.34 2 5 2 Z M8 6 C8.99 7.485 8.99 7.485 10 9 C10 8.01 10 7.02 10 6 C9.34 6 8.68 6 8 6 Z " fill="#A5494C" transform="translate(88,118)"/>
<path d="M0 0 C1.32 0.66 2.64 1.32 4 2 C4 13.22 4 24.44 4 36 C3.34 36 2.68 36 2 36 C1.34 31.05 0.68 26.1 0 21 C-0.33 21 -0.66 21 -1 21 C-0.96519531 20.11957031 -0.93039063 19.23914063 -0.89453125 18.33203125 C-0.86746094 17.17058594 -0.84039062 16.00914062 -0.8125 14.8125 C-0.77769531 13.66394531 -0.74289063 12.51539063 -0.70703125 11.33203125 C-1.02556034 7.70929376 -2.05520268 5.99978327 -4 3 C-3.67 2.34 -3.34 1.68 -3 1 C-2.01 1.33 -1.02 1.66 0 2 C0 1.34 0 0.68 0 0 Z " fill="#AA5355" transform="translate(88,147)"/>
<path d="M0 0 C1.134375 0.020625 2.26875 0.04125 3.4375 0.0625 C3.4375 0.7225 3.4375 1.3825 3.4375 2.0625 C4.4275 2.3925 5.4175 2.7225 6.4375 3.0625 C6.4375 7.6825 6.4375 12.3025 6.4375 17.0625 C2.58034477 15.13392238 1.25901843 14.01934501 -1.3125 10.75 C-1.92609375 9.99074219 -2.5396875 9.23148438 -3.171875 8.44921875 C-4.76309257 5.71822455 -4.9264141 4.17182484 -4.5625 1.0625 C-3.5625 0.0625 -3.5625 0.0625 0 0 Z " fill="#A14043" transform="translate(80.5625,120.9375)"/>
<path d="M0 0 C5 4 5 4 5.8125 7.75 C5.874375 8.8225 5.93625 9.895 6 11 C2.25 14 2.25 14 0 14 C0 9.38 0 4.76 0 0 Z " fill="#AA5255" transform="translate(93,151)"/>
<path d="M0 0 C2.31 0.33 4.62 0.66 7 1 C7.33 2.98 7.66 4.96 8 7 C7.34 7 6.68 7 6 7 C5.67 7.66 5.34 8.32 5 9 C4.01 8.67 3.02 8.34 2 8 C1.67 12.62 1.34 17.24 1 22 C0.67 22 0.34 22 0 22 C0 14.74 0 7.48 0 0 Z " fill="#D1A3A4" transform="translate(88,118)"/>
<path d="M0 0 C1.65 0 3.3 0 5 0 C5 3.3 5 6.6 5 10 C3.35 10 1.7 10 0 10 C0 6.7 0 3.4 0 0 Z " fill="#B26567" transform="translate(42,175)"/>
<path d="M0 0 C3.3 0 6.6 0 10 0 C10 1.32 10 2.64 10 4 C6.7 4 3.4 4 0 4 C0 2.68 0 1.36 0 0 Z " fill="#A03E41" transform="translate(43,200)"/>
<path d="M0 0 C1.32 0 2.64 0 4 0 C4 3.3 4 6.6 4 10 C2.68 10 1.36 10 0 10 C0 6.7 0 3.4 0 0 Z " fill="#A03F42" transform="translate(37,194)"/>
<path d="M0 0 C3.3 0 6.6 0 10 0 C10 1.32 10 2.64 10 4 C6.7 4 3.4 4 0 4 C0 2.68 0 1.36 0 0 Z " fill="#9F3D40" transform="translate(37,188)"/>
<path d="M0 0 C1.32 0 2.64 0 4 0 C4 3.3 4 6.6 4 10 C2.68 10 1.36 10 0 10 C0 6.7 0 3.4 0 0 Z " fill="#A03F41" transform="translate(49,188)"/>
<path d="M0 0 C1.32 0 2.64 0 4 0 C4 3.3 4 6.6 4 10 C2.68 10 1.36 10 0 10 C0 6.7 0 3.4 0 0 Z " fill="#A03F41" transform="translate(30,182)"/>
<path d="M0 0 C3.3 0 6.6 0 10 0 C10 1.32 10 2.64 10 4 C6.7 4 3.4 4 0 4 C0 2.68 0 1.36 0 0 Z " fill="#A03E41" transform="translate(30,175)"/>
<path d="M0 0 C0.66 0 1.32 0 2 0 C2 2.97 2 5.94 2 9 C0.35 8.01 -1.3 7.02 -3 6 C-2.42655063 3.13275314 -2.1385485 2.1385485 0 0 Z " fill="#AF5E60" transform="translate(87,173)"/>
<path d="M0 0 C1.32 0.33 2.64 0.66 4 1 C4 1.66 4 2.32 4 3 C5.32 3.66 6.64 4.32 8 5 C7.01 6.485 7.01 6.485 6 8 C5.01 7.67 4.02 7.34 3 7 C3 6.01 3 5.02 3 4 C2.01 4 1.02 4 0 4 C0 2.68 0 1.36 0 0 Z " fill="#CD9A9B" transform="translate(34,147)"/>
<path d="M0 0 C0.66 0 1.32 0 2 0 C2 3.96 2 7.92 2 12 C1.34 11.67 0.68 11.34 0 11 C0 7.37 0 3.74 0 0 Z " fill="#CC999A" transform="translate(90,187)"/>
<path d="M0 0 C0.66 0.33 1.32 0.66 2 1 C-0.97 3.97 -3.94 6.94 -7 10 C-7 6.04435836 -5.59478606 4.89133304 -3 2 C-2.01 1.34 -1.02 0.68 0 0 Z " fill="#B66B6D" transform="translate(489,148)"/>
<path d="M0 0 C0.66 0.33 1.32 0.66 2 1 C1.57847656 1.39832031 1.15695313 1.79664063 0.72265625 2.20703125 C0.17480469 2.73683594 -0.37304688 3.26664063 -0.9375 3.8125 C-1.48277344 4.33457031 -2.02804688 4.85664063 -2.58984375 5.39453125 C-4.23519092 7.05812198 -4.23519092 7.05812198 -5 10 C-4.34 10.33 -3.68 10.66 -3 11 C-4.32 10.67 -5.64 10.34 -7 10 C-4.14285714 2.42857143 -4.14285714 2.42857143 0 0 Z " fill="#BA7475" transform="translate(251,147)"/>
<path d="M0 0 C2.03833424 1.2739589 4.03852126 2.61061923 6 4 C6 4.66 6 5.32 6 6 C4.6078125 5.505 4.6078125 5.505 3.1875 5 C0.07970709 3.85032996 0.07970709 3.85032996 -3 4 C-3 3.34 -3 2.68 -3 2 C-2.01 2 -1.02 2 0 2 C0 1.34 0 0.68 0 0 Z " fill="#C5898B" transform="translate(27,134)"/>
<path d="M0 0 C0.99 0.33 1.98 0.66 3 1 C2.34 1 1.68 1 1 1 C0.67 1.99 0.34 2.98 0 4 C-0.99 4 -1.98 4 -3 4 C-3 3.34 -3 2.68 -3 2 C-5.31 2 -7.62 2 -10 2 C-10 1.67 -10 1.34 -10 1 C-9.36191406 1.01160156 -8.72382812 1.02320312 -8.06640625 1.03515625 C-7.24011719 1.04417969 -6.41382812 1.05320312 -5.5625 1.0625 C-4.32693359 1.07990234 -4.32693359 1.07990234 -3.06640625 1.09765625 C-1.00836062 1.23267348 -1.00836062 1.23267348 0 0 Z " fill="#CC989A" transform="translate(86,116)"/>
<path d="M0 0 C0.66 0.33 1.32 0.66 2 1 C1.34 3.31 0.68 5.62 0 8 C-1.32 6.35 -2.64 4.7 -4 3 C-3.67 2.34 -3.34 1.68 -3 1 C-2.01 1.33 -1.02 1.66 0 2 C0 1.34 0 0.68 0 0 Z " fill="#C99192" transform="translate(88,147)"/>
<path d="M0 0 C1.98 0.495 1.98 0.495 4 1 C4 2.65 4 4.3 4 6 C2.35 5.67 0.7 5.34 -1 5 C-0.67 3.35 -0.34 1.7 0 0 Z " fill="#C4898B" transform="translate(29,146)"/>
<path d="M0 0 C1.32 0 2.64 0 4 0 C4.33 1.32 4.66 2.64 5 4 C4.01 4.33 3.02 4.66 2 5 C2 4.34 2 3.68 2 3 C1.34 3 0.68 3 0 3 C0 2.01 0 1.02 0 0 Z " fill="#C38788" transform="translate(48,136)"/>
<path d="M0 0 C-0.33 0.66 -0.66 1.32 -1 2 C-4.0625 2.625 -4.0625 2.625 -7 3 C-6.67 2.01 -6.34 1.02 -6 0 C-3.50907189 -1.24546405 -2.58919267 -0.7767578 0 0 Z " fill="#CA9496" transform="translate(41,126)"/>
<path d="M0 0 C0.66 0.33 1.32 0.66 2 1 C-0.31 3.31 -2.62 5.62 -5 8 C-5 5 -5 5 -2.5 2.3125 C-1.675 1.549375 -0.85 0.78625 0 0 Z " fill="#B87072" transform="translate(366,120)"/>
<path d="M0 0 C1.98 0.99 1.98 0.99 4 2 C4 3.32 4 4.64 4 6 C2.68 5.34 1.36 4.68 0 4 C0 2.68 0 1.36 0 0 Z " fill="#AD5A5C" transform="translate(88,118)"/>
<path d="M0 0 C1.32 0 2.64 0 4 0 C4 1.32 4 2.64 4 4 C2.68 4 1.36 4 0 4 C0 2.68 0 1.36 0 0 Z " fill="#C99294" transform="translate(43,194)"/>
<path d="M0 0 C1.98 0.99 1.98 0.99 4 2 C3.01 3.485 3.01 3.485 2 5 C1.34 5 0.68 5 0 5 C0 3.35 0 1.7 0 0 Z " fill="#BD7A7C" transform="translate(93,188)"/>
<path d="M0 0 C0.99 0.33 1.98 0.66 3 1 C3 1.99 3 2.98 3 4 C1.68 4 0.36 4 -1 4 C-0.67 2.68 -0.34 1.36 0 0 Z " fill="#BF7D7F" transform="translate(37,181)"/>
<path d="M0 0 C0.66 0 1.32 0 2 0 C2 1.65 2 3.3 2 5 C1.34 5 0.68 5 0 5 C0 3.35 0 1.7 0 0 Z " fill="#DCB9BA" transform="translate(90,201)"/>
</svg>
